<?xml version="1.0" standalone="no"?>
<!DOCTYPE svg PUBLIC "-//W3C//DTD SVG 20010904//EN"
 "http://www.w3.org/TR/2001/REC-SVG-20010904/DTD/svg10.dtd">
<svg version="1.0" xmlns="http://www.w3.org/2000/svg"
 width="710.000000pt" height="677.000000pt" viewBox="0 0 710.000000 677.000000"
 preserveAspectRatio="xMidYMid meet">
<metadata>
Created by potrace 1.15, written by Peter Selinger 2001-2017
</metadata>
<g transform="translate(0.000000,677.000000) scale(0.100000,-0.100000)"
fill="#000000" stroke="none">
<path d="M0 3385 l0 -3385 196 0 c111 1 205 5 215 11 13 6 19 6 19 -1 0 -5 9
-10 20 -10 11 0 20 5 20 10 0 6 -7 10 -15 10 -8 0 -15 5 -15 10 0 15 -26 12
-40 -5 -7 -8 -20 -15 -29 -14 -13 0 -13 2 -1 6 8 3 26 17 40 30 20 19 26 20
28 8 4 -19 21 -19 46 0 21 16 40 10 30 -8 -5 -8 -2 -8 7 1 7 7 14 23 15 36 1
18 -4 23 -18 21 -21 -4 -23 5 -6 24 9 10 9 12 1 7 -6 -3 -14 -2 -17 3 -3 5
-21 1 -41 -8 -38 -18 -46 -32 -15 -26 11 2 18 0 15 -6 -4 -5 1 -9 9 -9 20 0
21 -16 1 -24 -8 -3 -14 0 -12 6 2 14 -23 18 -40 6 -6 -5 -14 -5 -18 2 -4 6 -3
10 2 9 19 -3 25 2 14 14 -9 11 -3 18 29 32 22 10 40 23 40 29 0 7 3 7 8 1 4
-5 14 -11 22 -13 11 -3 10 2 -4 17 -19 21 -27 20 -58 -6 -11 -10 -18 -11 -23
-4 -6 11 -5 12 15 15 6 0 10 6 9 11 -1 6 -5 9 -10 7 -5 -1 -9 2 -9 8 0 13 17
13 25 0 7 -12 46 -3 56 13 4 5 13 6 20 2 9 -6 6 -11 -12 -18 -15 -6 -19 -11
-11 -14 16 -6 42 15 42 34 0 7 7 16 15 19 22 9 18 26 -4 19 -12 -3 -21 0 -25
10 -3 9 0 15 10 15 8 0 12 5 9 10 -4 6 -11 7 -17 4 -7 -5 -8 -2 -4 5 5 7 14
10 21 7 7 -2 21 4 31 15 11 12 21 16 27 10 11 -11 0 -51 -15 -51 -7 0 -6 5 1
14 7 8 8 17 3 20 -14 8 -35 -21 -29 -38 3 -8 14 -13 24 -12 10 2 23 -4 30 -13
7 -10 12 -11 13 -4 0 6 -4 14 -10 18 -16 10 0 34 18 28 15 -6 15 -4 0 14 -22
25 -23 43 -2 43 14 0 15 -3 3 -17 -7 -10 -9 -15 -5 -11 5 4 16 2 25 -5 14 -10
14 -10 4 4 -7 9 -11 18 -8 21 3 3 -1 10 -9 17 -11 9 -17 9 -27 -1 -18 -18 -45
-16 -41 2 2 8 13 25 24 37 27 29 21 68 -11 68 -13 0 -26 6 -29 13 -2 6 -11 12
-20 12 -14 0 -14 2 -3 9 8 6 20 3 32 -7 10 -9 26 -17 35 -18 12 -2 9 4 -11 20
-16 13 -24 25 -18 29 6 4 18 -2 28 -13 23 -26 30 -25 68 4 18 13 48 29 67 34
l35 10 -32 1 c-17 1 -34 -3 -38 -8 -3 -6 -15 -8 -27 -6 -11 3 -18 2 -14 -2 8
-9 -14 -33 -30 -33 -8 0 -14 5 -14 11 0 5 5 7 10 4 22 -14 31 8 11 27 -21 19
-47 16 -35 -4 5 -7 2 -8 -7 -2 -8 5 -18 9 -24 9 -5 1 -9 7 -7 14 2 9 -3 11
-14 7 -12 -4 -15 -2 -10 9 3 8 1 15 -4 15 -15 0 -12 17 4 23 10 4 13 1 10 -7
-3 -7 1 -18 9 -25 11 -9 17 -8 27 3 6 9 9 20 5 25 -3 7 0 8 9 5 19 -7 21 -21
5 -26 -7 -2 0 -12 15 -22 17 -10 34 -15 44 -10 9 4 26 6 38 5 11 -1 27 5 34
13 7 9 19 16 26 16 8 0 14 4 14 10 0 5 3 9 8 8 12 -2 42 14 42 23 0 5 -6 8
-12 6 -7 -1 -12 3 -11 9 1 6 -5 11 -13 11 -19 0 -18 -7 4 -24 16 -14 16 -14
-4 -10 -13 3 -25 -3 -33 -14 -6 -11 -18 -19 -26 -19 -8 0 -15 -4 -15 -10 0 -5
-7 -10 -15 -10 -8 0 -15 5 -15 10 0 6 7 10 15 10 8 0 15 4 15 9 0 5 10 12 23
16 14 4 17 8 9 12 -7 3 -25 -3 -40 -13 -26 -18 -52 -27 -52 -18 0 3 12 9 26
14 14 6 23 14 19 20 -3 5 -20 1 -40 -10 -19 -11 -35 -16 -35 -11 0 5 7 12 16
15 8 3 13 10 10 15 -4 5 2 8 11 6 10 -1 26 4 35 13 12 9 18 11 18 4 0 -7 -5
-12 -11 -12 -5 0 -7 -5 -3 -12 5 -8 12 -1 21 20 8 20 18 30 25 26 7 -4 8 -3 4
4 -4 7 -3 12 2 12 6 0 12 -7 16 -15 3 -8 10 -15 17 -15 6 0 9 6 6 14 -4 10 0
14 14 11 28 -6 23 4 -7 16 -20 7 -32 6 -50 -6 -13 -8 -24 -13 -24 -10 0 4 -12
-2 -27 -13 -16 -10 -36 -22 -46 -25 -10 -4 -16 -11 -13 -16 6 -9 -23 -25 -31
-18 -6 7 50 57 64 57 8 0 11 4 8 10 -4 6 -13 5 -25 -2 -15 -10 -22 -10 -31 -1
-8 8 -18 9 -29 3 -12 -6 -23 -4 -36 6 -18 15 -18 15 1 6 14 -7 28 -6 47 4 16
8 34 11 41 7 29 -19 67 6 67 44 0 24 -18 29 -50 15 -20 -9 -24 -32 -4 -32 9 0
12 5 8 13 -4 6 -4 9 1 5 4 -4 13 -3 20 2 8 7 12 5 12 -5 0 -8 -3 -13 -5 -10
-3 3 -13 -2 -22 -10 -15 -13 -19 -13 -40 7 -22 21 -22 22 -4 29 10 4 13 8 7 8
-7 1 -13 6 -13 11 0 6 8 5 20 -2 15 -10 22 -10 32 0 22 22 46 14 53 -18 6 -26
9 -29 22 -18 13 11 13 13 -4 19 -10 4 -14 8 -10 8 4 1 3 10 -3 21 -11 20 -33
22 -59 6 -7 -5 -16 -5 -20 1 -10 14 -29 10 -44 -11 -12 -17 -14 -17 -20 -2 -4
10 -1 16 8 16 18 0 20 17 3 23 -7 2 -9 8 -5 13 4 5 11 4 15 -1 10 -14 42 -18
42 -5 0 5 5 10 11 10 5 0 8 -4 4 -9 -3 -5 -1 -12 4 -15 5 -4 13 -1 16 5 4 5
13 8 21 5 8 -3 14 -1 14 4 0 6 15 9 33 8 17 -1 41 2 51 7 14 6 17 5 12 -3 -11
-18 19 -15 34 3 7 8 17 12 22 9 5 -3 2 -14 -8 -25 -9 -10 -21 -16 -27 -12 -6
3 -7 1 -3 -6 5 -8 15 -6 34 7 15 11 34 22 42 25 10 3 6 6 -9 6 -19 1 -21 4
-11 16 10 12 8 13 -10 10 -16 -3 -20 0 -16 10 3 9 0 12 -10 8 -11 -4 -12 -9
-3 -19 14 -17 18 -15 -61 -20 -36 -2 -75 -6 -87 -9 -18 -4 -21 -2 -16 11 4 11
14 14 31 11 27 -5 79 9 69 19 -3 3 -15 0 -27 -6 -16 -9 -25 -9 -35 0 -8 7 -18
9 -24 6 -5 -3 -20 -2 -32 3 -22 8 -22 8 9 13 18 3 35 2 37 -2 4 -6 39 -6 55 0
3 1 -15 8 -40 14 -30 9 -44 17 -41 27 2 8 3 24 3 36 -1 11 5 24 13 27 22 8 28
-11 8 -23 -10 -6 -13 -11 -6 -11 6 0 14 4 18 9 3 6 19 16 35 24 24 13 31 13
40 2 6 -8 17 -12 24 -9 18 7 27 -33 10 -46 -7 -7 -19 -8 -25 -4 -9 5 -7 11 6
21 11 7 14 13 8 13 -7 0 -15 -5 -18 -10 -4 -6 -11 -8 -16 -4 -5 3 -7 10 -4 15
4 5 4 9 1 9 -9 0 -86 -42 -86 -47 0 -2 4 -2 9 2 5 3 12 1 16 -5 3 -5 13 -10
21 -10 8 0 12 5 9 10 -4 6 -12 7 -18 4 -8 -5 -9 -4 -2 4 6 6 19 12 30 14 15 2
20 -2 19 -19 -1 -14 3 -20 10 -16 6 4 19 6 29 5 9 -2 17 3 17 10 0 7 12 0 26
-16 14 -15 28 -25 32 -21 4 4 2 10 -5 12 -7 2 -9 11 -6 19 4 10 0 12 -13 7
-18 -6 -18 -6 -1 14 12 14 15 23 7 28 -5 3 -8 11 -4 16 3 5 10 7 15 4 17 -11
49 -14 54 -5 3 4 -3 7 -12 5 -10 -1 -25 1 -34 6 -8 4 -21 4 -29 -1 -11 -7 -11
-11 -1 -24 11 -13 11 -16 -2 -16 -24 0 -28 38 -4 55 11 8 25 11 31 8 6 -4 5 1
-3 10 -7 9 -10 17 -5 17 4 0 3 5 -2 10 -12 12 -37 1 -91 -37 -33 -25 -53 -29
-53 -13 0 6 6 10 14 10 16 0 31 18 23 27 -3 3 -17 -4 -31 -15 -14 -10 -23 -22
-20 -25 3 -3 -1 -4 -10 -3 -22 3 -33 16 -14 16 9 0 19 7 22 16 3 8 10 13 15 9
5 -3 12 -1 15 4 11 16 -11 22 -24 6 -7 -8 -22 -15 -33 -15 -18 0 -18 2 6 23
28 24 84 36 71 15 -4 -7 -3 -8 4 -4 6 4 9 13 5 21 -3 8 0 15 7 15 6 0 9 4 5
10 -3 5 -13 6 -22 3 -11 -4 -14 -3 -9 6 5 8 1 14 -13 18 -12 3 -18 10 -14 17
4 6 8 16 8 21 0 6 15 16 33 24 17 8 32 19 32 24 0 5 -7 4 -15 -3 -8 -7 -15 -9
-15 -5 0 4 -7 2 -15 -5 -8 -6 -23 -9 -33 -6 -24 8 -54 -3 -46 -16 3 -5 11 -4
19 2 8 7 19 9 25 5 18 -11 -8 -33 -36 -30 -13 1 -22 0 -19 -3 4 -4 -40 -32
-52 -32 -3 0 -2 7 1 16 3 8 2 12 -4 9 -15 -10 -12 6 6 26 9 10 21 16 28 13 7
-3 23 7 36 21 13 14 29 25 35 25 7 0 20 10 31 23 19 22 19 22 -2 5 -16 -14
-23 -15 -32 -6 -9 9 -6 15 16 24 18 9 21 13 10 13 -10 1 -27 -8 -38 -19 -11
-11 -24 -20 -30 -20 -5 0 -7 -7 -4 -15 4 -8 1 -15 -5 -15 -6 0 -11 5 -11 11 0
8 -4 8 -13 1 -8 -7 -18 -7 -27 -2 -13 8 -12 10 2 10 22 0 33 19 19 33 -8 8
-11 8 -11 -1 0 -18 -41 -37 -50 -22 -6 9 -13 9 -31 0 l-24 -11 24 21 c18 16
27 18 38 9 14 -13 26 -7 29 15 2 14 -56 17 -67 4 -3 -5 -23 1 -44 12 -22 11
-32 20 -22 20 19 0 22 11 6 27 -7 7 -7 13 -1 17 12 7 33 -16 36 -41 6 -35 69
-5 74 35 3 21 2 22 -17 10 -24 -15 -27 -24 -9 -30 7 -3 2 -7 -10 -10 -12 -4
-20 -2 -17 2 3 5 1 11 -5 15 -5 3 -10 11 -10 16 0 6 4 8 9 5 5 -3 14 1 21 9 7
8 18 15 26 15 7 0 19 6 26 14 19 19 79 49 85 42 5 -5 33 18 33 28 0 3 -16 -2
-35 -10 -43 -18 -51 -18 -35 1 10 12 7 19 -16 40 l-27 25 -19 -20 c-22 -24
-48 -26 -48 -5 0 8 -4 15 -10 15 -12 0 -7 -37 7 -51 8 -8 13 -8 17 0 4 6 19
11 33 11 19 0 24 4 19 16 -4 10 -1 14 6 11 7 -2 12 -12 10 -22 -2 -11 1 -14 9
-9 8 4 10 3 5 -5 -4 -6 -11 -9 -16 -6 -4 3 -10 -1 -13 -7 -3 -10 -7 -10 -20 1
-10 7 -17 9 -17 3 0 -14 24 -22 52 -16 22 5 23 5 3 -10 -11 -9 -25 -14 -33
-11 -7 2 -11 1 -8 -4 3 -5 -5 -16 -19 -25 -31 -20 -39 -20 -31 0 3 9 2 12 -5
9 -6 -4 -7 3 -3 19 5 23 4 25 -12 20 -16 -6 -17 -5 -6 7 18 19 15 26 -14 33
l-26 7 23 20 c28 24 19 36 -13 15 -17 -11 -27 -12 -38 -5 -13 9 -13 10 1 6 16
-5 39 9 39 24 0 4 -10 5 -22 3 l-23 -5 23 12 c19 10 27 9 52 -9 18 -14 31 -18
35 -11 4 5 -7 15 -24 22 -17 6 -31 15 -31 19 0 4 -7 8 -16 8 -21 0 -47 27 -34
35 6 4 2 13 -10 23 l-21 17 24 1 c20 1 24 -3 23 -25 -1 -19 4 -26 19 -28 11
-2 14 0 7 3 -10 5 -8 10 8 21 l20 14 -22 19 -23 19 26 1 c42 0 54 -23 24 -46
-22 -17 -23 -19 -7 -26 16 -6 16 -7 0 -7 -10 -1 -18 -4 -18 -8 0 -13 49 -32
56 -22 3 5 0 9 -7 9 -7 0 -2 11 11 25 13 14 18 25 12 25 -7 0 -12 5 -12 10 0
6 6 10 14 10 8 0 18 5 22 12 5 7 0 9 -14 6 -15 -4 -19 -2 -15 8 3 8 9 14 14
14 5 0 9 5 9 10 0 14 -27 12 -33 -2 -3 -10 -7 -10 -17 -1 -10 9 -5 13 24 18
44 9 47 21 7 27 -18 3 -27 0 -24 -5 3 -5 0 -8 -7 -5 -8 2 -15 9 -17 15 -5 15
27 25 43 13 9 -8 19 -7 38 5 17 11 35 15 55 10 17 -3 32 -2 36 4 4 7 -13 11
-49 11 -30 0 -58 5 -61 10 -5 8 -12 7 -22 -1 -12 -10 -16 -10 -24 2 -13 21
-12 23 21 42 28 17 32 17 46 2 9 -9 24 -13 34 -10 10 3 21 2 24 -3 9 -14 56
-1 56 15 0 9 6 13 15 10 8 -4 17 -2 20 4 4 5 10 7 15 4 5 -3 11 -1 15 5 7 11
1 12 -56 13 -31 0 -36 4 -36 23 0 13 3 22 7 19 3 -2 7 2 7 10 0 10 -6 11 -24
4 -16 -6 -22 -5 -18 1 3 6 12 10 20 10 12 0 74 49 64 51 -2 0 -12 2 -21 4 -10
2 -17 0 -17 -3 3 -20 -3 -32 -15 -32 -8 0 -31 -9 -51 -21 -28 -17 -34 -18 -29
-5 4 10 0 18 -10 22 -9 3 -16 12 -16 20 0 8 -4 14 -10 14 -5 0 -10 5 -10 11 0
8 4 8 14 0 10 -8 16 -9 21 -1 3 6 11 8 16 5 5 -4 9 -2 9 3 0 11 -35 48 -57 61
-10 5 -15 13 -11 16 7 7 23 -4 62 -43 l22 -23 26 26 c21 21 28 23 40 13 17
-16 42 -22 33 -8 -3 5 1 10 9 10 22 0 20 20 -1 21 -10 0 1 9 23 19 23 10 45
23 49 30 4 6 -21 -3 -55 -20 -50 -25 -64 -29 -76 -19 -10 8 -12 15 -4 23 17
17 11 27 -9 16 -25 -13 -44 -13 -36 0 3 6 -1 7 -9 4 -9 -3 -16 -2 -17 2 0 5
-2 17 -4 27 -3 14 8 24 36 36 l40 18 -35 21 c-45 26 -46 46 -3 63 l32 14 -30
6 -30 7 35 1 c39 1 84 27 74 42 -3 6 -14 0 -25 -12 -11 -12 -22 -19 -26 -15
-4 3 -2 11 4 17 21 21 -7 67 -44 74 -39 7 -70 -14 -51 -33 14 -14 7 -24 -9
-14 -15 10 -21 48 -6 45 6 -1 14 4 17 12 3 8 4 15 3 15 -1 0 -16 -4 -34 -9
-21 -6 -33 -6 -35 1 -3 8 -12 7 -28 -1 -24 -12 -24 -11 -5 4 11 8 25 13 31 11
7 -3 14 4 17 15 4 13 0 19 -11 19 -13 0 -13 3 -4 12 10 10 15 10 21 -1 5 -7
17 -11 27 -7 22 6 52 -9 41 -21 -5 -4 -12 -1 -16 6 -7 10 -13 11 -30 2 -11 -7
-21 -16 -21 -21 0 -15 28 -12 33 3 3 8 11 6 27 -8 19 -16 22 -17 17 -3 -11 32
44 6 58 -27 4 -11 8 -22 7 -25 -1 -10 67 -10 73 0 3 6 -1 7 -9 4 -9 -3 -16 -1
-16 5 0 6 7 11 15 11 8 0 15 5 15 10 0 14 -12 12 -38 -6 -29 -20 -44 -8 -17
13 14 11 16 17 8 20 -7 3 -13 11 -13 18 0 21 -18 28 -37 15 -16 -9 -15 -10 5
-5 16 5 22 2 22 -9 0 -13 -5 -13 -38 -2 -27 10 -36 18 -34 32 5 26 18 38 26
25 4 -6 2 -11 -3 -11 -6 0 -11 -7 -11 -15 0 -19 7 -19 27 1 14 14 19 12 52
-19 47 -45 60 -48 95 -24 23 16 32 18 47 9 11 -7 19 -8 19 -3 0 5 -8 12 -17
15 -12 5 -13 10 -6 17 14 14 33 3 33 -17 0 -8 4 -14 10 -14 5 0 7 7 4 15 -8
19 3 19 22 0 14 -13 14 -16 0 -21 -9 -3 -16 -11 -16 -16 0 -7 5 -6 13 1 8 6
17 8 21 4 3 -3 -6 -15 -21 -25 -16 -10 -23 -18 -18 -18 6 0 21 7 33 16 19 13
21 18 10 32 -11 13 -10 15 5 9 10 -4 16 -3 12 2 -3 5 1 12 7 15 7 3 3 3 -9 0
-13 -3 -23 -1 -23 4 0 6 -13 15 -30 21 -30 10 -38 25 -21 35 14 9 51 94 51
119 0 13 4 27 10 33 5 5 12 60 16 122 4 61 11 112 16 112 4 0 8 -5 8 -11 0 -5
5 -7 10 -4 15 9 2 25 -19 25 -15 0 -19 11 -24 53 -3 28 -4 63 -2 77 2 14 4 35
4 48 1 19 5 22 24 18 12 -3 16 -3 9 0 -6 3 -9 11 -6 16 4 7 2 8 -5 4 -8 -6
-10 4 -5 36 9 56 11 58 19 12 3 -22 12 -62 19 -91 9 -38 10 -54 2 -57 -6 -2
-4 -5 5 -5 11 -1 25 -24 42 -68 14 -38 29 -77 33 -87 5 -14 4 -17 -5 -12 -12
8 -33 51 -35 70 -1 5 -8 11 -16 13 -13 4 -13 3 0 -6 8 -6 11 -11 6 -11 -5 0
-4 -6 1 -12 6 -7 14 -31 18 -53 4 -22 10 -34 12 -27 3 6 11 12 18 12 16 0 47
-92 39 -117 -5 -14 -4 -15 4 -4 8 10 11 6 17 -18 9 -42 -2 -52 -24 -22 -14 18
-20 21 -26 11 -5 -9 -4 -11 3 -6 7 4 12 1 12 -7 0 -16 27 -30 40 -22 11 7 23
-86 18 -145 -3 -47 1 -53 61 -80 35 -16 70 13 98 81 30 74 28 170 -7 254 -35
85 -40 105 -26 105 8 0 18 4 21 10 4 6 -3 9 -17 7 -19 -2 -26 7 -46 58 l-24
59 21 17 c13 11 17 20 11 24 -6 3 -8 11 -4 16 3 5 10 7 15 4 5 -4 9 0 9 7 1
22 28 -35 35 -75 6 -30 4 -37 -8 -37 -9 0 -19 5 -22 10 -4 6 -1 9 6 8 6 -2 13
2 16 9 3 7 -3 10 -16 6 -11 -3 -22 -12 -26 -21 -3 -9 -3 -13 1 -9 4 4 16 -1
27 -10 10 -10 22 -18 25 -18 8 0 11 -16 13 -97 2 -55 6 -71 24 -88 31 -30 81
-42 96 -24 6 8 21 15 33 15 17 1 17 2 4 6 -15 4 -16 8 -6 26 13 24 27 268 16
260 -5 -2 -8 2 -8 10 0 7 -14 42 -30 76 -17 34 -28 66 -25 71 3 4 -3 11 -12
14 -14 6 -14 8 3 20 21 16 40 10 26 -7 -4 -7 -8 -19 -7 -27 1 -8 3 -21 3 -28
1 -8 11 -12 24 -10 25 4 34 48 10 48 -13 0 -13 2 0 18 9 9 13 23 10 31 -3 10
0 12 14 7 10 -4 15 -4 11 0 -4 4 -3 12 2 18 7 8 -6 11 -42 11 -29 0 -51 -4
-50 -10 1 -5 3 -16 5 -24 2 -8 -6 -17 -16 -19 -15 -3 -17 0 -12 14 4 10 4 15
0 11 -4 -4 -16 7 -26 24 -11 17 -17 34 -14 37 3 3 -1 10 -8 16 -8 6 -17 22
-21 36 -7 24 -7 24 9 5 8 -11 16 -18 17 -15 0 3 2 15 3 28 2 20 -1 22 -20 18
-28 -7 -55 28 -29 38 17 6 19 15 5 36 -9 13 -11 13 -21 0 -8 -12 -9 -10 -4 8
4 14 2 22 -6 22 -7 0 -9 10 -5 30 3 17 1 30 -4 30 -11 0 -12 126 -2 150 8 17
22 22 75 25 33 3 36 1 25 -12 -11 -14 -10 -15 10 -9 26 9 30 -8 5 -23 -17 -10
-17 -10 0 -11 9 0 17 -4 17 -10 0 -5 -6 -10 -14 -10 -8 0 -18 -5 -22 -12 -5
-8 -2 -9 9 -5 11 4 17 1 17 -8 0 -8 -8 -15 -17 -15 -14 0 -14 -3 -5 -12 10
-10 15 -10 22 2 5 8 10 23 10 33 0 9 5 17 11 17 6 0 17 6 24 14 12 12 12 15 0
20 -8 3 -15 1 -15 -4 0 -6 -5 -10 -12 -10 -8 0 -6 6 4 16 15 16 15 18 -4 34
-13 10 -17 19 -11 23 6 4 30 -19 53 -50 24 -31 37 -52 30 -48 -8 5 -11 3 -8
-6 3 -8 13 -14 23 -14 14 0 19 -8 20 -37 2 -21 -1 -38 -6 -38 -5 0 -9 -4 -9
-8 0 -5 7 -9 15 -9 8 0 12 4 9 9 -3 4 0 8 7 8 10 0 10 3 1 12 -15 15 -16 32
-2 23 6 -3 10 -2 10 4 0 5 -6 12 -12 14 -10 4 -10 6 0 6 16 1 64 -34 56 -41
-2 -3 3 -11 13 -19 14 -12 15 -12 9 0 -6 9 -5 12 5 9 8 -3 13 -11 11 -18 -2
-8 3 -10 13 -6 9 3 13 2 10 -4 -3 -6 -1 -10 5 -10 7 0 10 -7 6 -15 -3 -8 -1
-15 4 -15 12 0 33 -78 24 -92 -5 -7 -3 -8 6 -3 9 6 10 2 5 -15 -5 -16 -4 -20
4 -15 8 5 11 -18 10 -80 -1 -54 -5 -82 -10 -74 -7 11 -9 10 -9 -3 0 -10 7 -18
16 -18 13 0 15 -9 12 -45 -2 -25 1 -47 7 -49 6 -3 4 -8 -4 -14 -9 -7 -10 -11
-2 -13 8 -3 13 -38 14 -102 1 -53 5 -97 8 -97 4 0 10 -40 14 -90 9 -117 -6
-185 -45 -205 -15 -8 -31 -11 -35 -7 -5 4 -5 1 -1 -5 6 -11 -4 -17 -25 -15 -3
1 -7 -27 -8 -61 -2 -53 1 -63 21 -80 13 -10 17 -15 9 -11 -9 4 -12 3 -7 -4 4
-6 14 -8 23 -5 10 4 14 2 10 -4 -12 -19 82 -4 131 21 26 13 59 36 75 51 15 15
27 26 27 24 0 -2 21 -62 46 -134 25 -71 43 -140 41 -153 -2 -12 -1 -22 3 -22
5 0 11 -43 15 -96 7 -87 10 -97 31 -106 27 -12 72 2 99 32 22 24 44 113 46
183 2 53 3 56 16 37 20 -28 47 -25 88 11 49 43 60 89 46 184 -6 42 -9 80 -6
85 3 5 1 10 -5 12 -6 2 -13 35 -16 73 l-6 70 23 -27 c20 -25 48 -89 49 -111 0
-5 -5 -5 -12 -1 -7 4 -8 3 -4 -5 4 -6 11 -9 15 -7 4 3 24 -45 43 -107 l36
-112 -4 -188 c-2 -103 -1 -186 3 -185 5 1 20 -6 35 -16 42 -28 78 -18 112 32
28 40 31 51 36 155 l5 112 9 -75 c5 -41 9 -78 8 -82 -2 -9 63 -38 87 -38 50 0
97 89 88 166 l-5 45 32 -24 c17 -13 61 -46 98 -72 37 -26 66 -51 63 -54 -2 -4
4 -8 13 -9 9 -1 35 -5 57 -8 l41 -6 -2 -61 -1 -62 -54 -43 c-70 -56 -212 -153
-217 -147 -2 2 1 19 8 39 9 29 8 39 -5 60 -27 40 -60 56 -118 56 l-53 0 -79
-187 c-43 -104 -86 -195 -96 -203 -9 -8 -20 -25 -24 -38 -4 -13 -8 -22 -10
-20 -2 2 14 80 35 173 l38 170 -21 23 c-31 33 -92 47 -134 30 -32 -12 -38 -22
-80 -128 -24 -63 -56 -143 -69 -177 -13 -34 -27 -83 -30 -108 -4 -25 -9 -45
-11 -45 -2 0 -16 14 -30 30 -13 17 -28 28 -33 25 -4 -3 -10 2 -14 10 -7 20
-55 19 -106 -1 -22 -9 -40 -18 -40 -19 0 -2 12 -52 26 -112 25 -102 26 -117
20 -270 -7 -188 -7 -188 79 -308 31 -44 59 -85 62 -91 2 -6 -17 -55 -42 -109
-50 -105 -65 -170 -65 -280 0 -38 -7 -102 -16 -141 -17 -70 -17 -72 7 -150
l25 -79 762 -3 c419 -1 762 0 762 2 0 2 -13 59 -29 127 -48 202 -93 460 -145
827 l-5 32 45 0 c25 0 61 7 80 15 27 11 55 13 104 9 l69 -7 5 -71 c14 -162 27
-436 33 -678 l6 -258 698 0 697 0 22 83 c12 45 24 107 27 137 2 30 13 88 24
128 28 107 25 201 -10 309 -28 86 -134 370 -226 606 -25 65 -42 123 -39 130 4
7 3 9 -1 4 -7 -6 -109 239 -189 455 -20 53 -66 98 -101 98 -59 0 -332 104
-558 214 l-152 74 -24 68 c-13 38 -37 95 -53 127 -16 32 -26 63 -22 69 4 7 3
8 -4 4 -7 -4 -12 -3 -12 3 0 5 -12 24 -27 41 -25 31 -29 32 -85 28 -57 -4 -58
-4 -43 16 8 12 31 45 51 74 l36 54 23 -67 c13 -36 36 -82 50 -101 57 -75 135
-95 164 -43 13 24 12 28 -12 60 -38 51 -65 128 -77 221 -10 81 -13 175 -3 118
2 -14 13 -61 24 -104 16 -64 17 -81 7 -89 -9 -6 -8 -7 6 -3 14 5 17 2 12 -9
-3 -9 -2 -13 4 -10 6 3 10 2 10 -3 0 -4 14 -23 31 -40 51 -52 113 -40 133 25
4 12 0 46 -8 75 -9 29 -20 81 -24 116 -8 59 -8 63 10 59 10 -3 16 -1 12 4 -3
5 2 9 10 9 9 0 25 14 38 30 15 21 30 30 50 30 43 0 88 27 88 52 0 12 -11 40
-25 64 -23 38 -32 73 -49 172 l-6 34 39 -50 c87 -110 168 -132 204 -57 24 50
21 88 -9 124 -14 17 -22 36 -18 42 4 7 3 9 -4 5 -12 -7 -65 64 -89 121 -8 21
-21 94 -29 163 -25 242 -33 298 -49 359 -17 68 -54 151 -67 151 -4 0 -8 5 -8
11 0 5 6 7 13 3 8 -5 8 -2 -2 9 -15 18 -26 23 -16 7 3 -5 2 -10 -2 -10 -10 0
-38 42 -35 52 1 5 -4 7 -11 5 -6 -1 -11 4 -9 11 1 8 -2 11 -7 8 -5 -4 -23 11
-40 31 l-31 37 29 31 c44 46 51 67 51 155 0 81 12 123 43 149 11 9 17 9 22 1
9 -14 142 -5 161 11 8 6 14 18 14 26 0 16 35 13 113 -9 42 -13 142 -112 131
-130 -4 -6 -2 -8 4 -5 12 8 78 -79 105 -138 15 -32 17 -53 12 -109 -3 -39 -8
-72 -10 -75 -2 -4 -8 -75 -15 -158 -13 -167 -6 -213 45 -313 57 -111 153 -148
200 -77 13 20 13 29 0 77 -20 76 -19 79 15 32 36 -51 76 -72 132 -72 88 0 135
59 118 150 -11 59 -23 65 -101 48 -11 -2 -14 13 -14 82 0 47 4 116 9 155 l8
69 25 -58 c19 -45 21 -61 12 -72 -7 -9 -8 -14 -1 -14 6 0 12 5 14 11 4 13 158
-86 158 -102 0 -5 4 -8 8 -5 13 8 143 -114 135 -127 -3 -5 -1 -7 5 -3 6 3 13
2 17 -4 9 -15 68 -12 91 5 12 8 25 11 29 7 5 -4 5 -2 1 5 -3 6 0 17 7 24 11
10 8 23 -18 74 -46 90 -78 133 -129 175 -25 21 -42 41 -38 45 4 5 2 5 -4 2
-14 -8 -47 26 -37 38 5 4 3 5 -3 2 -17 -9 -81 64 -92 104 -8 30 -7 40 7 55 15
17 15 17 -1 5 -20 -15 -16 -22 -76 131 -28 70 -56 137 -63 150 -12 23 -12 23
15 -2 15 -13 24 -30 21 -38 -2 -7 -1 -11 4 -8 5 3 21 -10 35 -28 28 -37 33
-52 14 -40 -7 4 -8 3 -4 -5 4 -6 11 -9 16 -6 11 7 32 -30 22 -40 -4 -3 -2 -5
4 -3 17 5 97 -89 88 -103 -4 -7 -3 -9 4 -5 11 6 62 -93 65 -126 1 -9 4 -15 7
-13 7 5 55 -86 52 -98 -2 -5 1 -6 6 -3 9 5 94 -51 100 -66 2 -5 8 -8 14 -8 5
0 22 -9 38 -20 15 -10 48 -25 73 -32 25 -6 44 -15 41 -19 -2 -4 9 -1 25 7 22
11 32 25 37 52 7 34 4 39 -37 75 -24 21 -57 46 -74 54 -29 15 -56 41 -75 74
-8 14 -4 15 43 2 58 -15 92 -11 123 15 40 34 59 101 33 118 -8 5 -8 8 0 14 7
4 -5 7 -25 8 -20 1 -42 6 -49 12 -6 5 -15 7 -18 4 -3 -3 -12 -2 -19 2 -7 5
-15 9 -18 9 -3 1 -20 5 -39 9 -26 6 -30 10 -20 18 11 8 10 9 -4 4 -20 -6 -105
33 -126 58 -7 8 -10 20 -6 26 3 5 2 10 -3 10 -14 0 -45 87 -36 101 4 7 3 9 -3
6 -13 -8 -26 20 -16 35 3 6 1 8 -4 5 -6 -4 -20 19 -33 54 -18 51 -20 63 -9 71
11 8 10 9 -3 4 -10 -3 -18 -2 -18 3 0 4 -11 25 -25 45 -14 21 -21 35 -16 32 5
-4 12 -2 15 3 4 5 -2 8 -11 6 -25 -4 -58 26 -41 37 10 7 9 8 -2 6 -19 -4 -132
91 -124 103 3 5 2 8 -3 7 -8 -3 -101 74 -165 135 -10 9 -21 18 -25 18 -24 5
-63 22 -63 28 0 4 -8 7 -17 8 -63 6 -113 17 -113 26 0 6 -5 6 -12 0 -7 -5 -26
-9 -43 -10 -27 -2 -26 -1 10 12 46 16 75 18 75 7 0 -4 9 -8 20 -9 11 -1 20 3
20 8 0 6 -4 8 -9 4 -5 -3 -12 -1 -16 5 -9 15 21 11 110 -14 44 -13 79 -28 78
-33 -1 -6 8 -8 20 -6 44 7 97 -42 59 -55 -7 -2 -11 1 -10 6 2 6 0 10 -4 11
-20 3 -28 0 -28 -9 0 -5 7 -10 16 -10 8 0 12 -5 9 -10 -4 -6 -12 -7 -18 -4 -7
4 -8 3 -4 -2 5 -5 12 -9 15 -9 4 -1 17 -6 30 -13 21 -12 33 0 12 13 -5 3 -10
10 -10 16 0 17 26 9 48 -14 25 -27 30 -46 7 -27 -9 7 -18 10 -22 7 -3 -4 2 -9
11 -13 9 -3 13 -11 9 -18 -4 -6 1 -5 10 2 19 16 11 23 110 -91 37 -43 65 -82
62 -87 -3 -6 0 -7 8 -4 16 6 47 -31 43 -50 -2 -6 -1 -8 1 -4 3 5 23 -5 46 -21
58 -41 105 -84 86 -78 -9 3 -16 -1 -16 -9 0 -8 3 -12 5 -9 3 3 11 0 19 -7 11
-8 12 -7 7 6 -3 9 -4 16 -1 16 14 0 76 -43 72 -50 -2 -4 6 -5 19 -3 15 3 31
-2 44 -15 11 -11 22 -18 25 -16 12 13 199 -135 190 -150 -3 -6 -2 -8 2 -3 5 4
19 -3 32 -15 26 -24 30 -40 8 -32 -8 4 -12 11 -8 17 4 6 1 7 -7 2 -10 -6 -8
-12 9 -27 13 -10 27 -15 32 -12 5 3 9 0 9 -5 0 -6 17 -11 38 -11 21 0 43 -5
50 -12 9 -9 12 -9 12 0 0 7 -5 12 -11 12 -8 0 -8 5 1 15 7 8 17 12 23 8 6 -3
7 -1 3 6 -4 6 -3 17 2 24 12 16 21 67 11 67 -4 0 -11 14 -14 31 -4 18 -22 57
-40 88 -24 40 -30 58 -22 64 8 6 5 7 -6 3 -14 -4 -20 0 -24 15 -4 12 -11 18
-20 15 -9 -4 -17 2 -20 15 -4 14 -8 17 -13 8 -6 -9 -15 -7 -36 8 -16 11 -52
32 -81 48 -29 15 -50 32 -47 36 3 5 -2 6 -10 3 -9 -3 -27 6 -43 21 -15 15 -21
24 -13 20 11 -6 12 -5 4 4 -6 7 -18 14 -25 15 -29 6 -49 18 -43 27 3 5 -1 9
-8 9 -20 0 -90 75 -81 86 5 5 4 6 -1 2 -12 -10 -38 11 -29 25 3 5 1 7 -5 3
-12 -7 -55 42 -47 54 3 4 -3 14 -13 21 -15 13 -16 12 -3 -3 7 -10 11 -18 8
-18 -7 0 -86 105 -89 117 -2 5 -15 19 -30 31 -15 13 -28 29 -27 35 0 8 2 8 6
0 5 -15 39 -17 48 -4 3 5 0 13 -6 17 -8 5 -9 3 -4 -6 5 -9 4 -11 -3 -6 -7 4
-12 12 -12 17 0 5 -12 22 -26 37 l-26 27 18 -28 c14 -23 15 -30 4 -37 -13 -8
-101 51 -109 74 -3 6 3 5 12 -3 11 -9 17 -10 17 -2 0 6 5 11 11 11 6 0 9 -8 7
-18 -3 -12 1 -18 12 -18 15 0 15 2 1 28 -16 28 -31 37 -31 18 0 -5 -5 -10 -11
-10 -5 0 -7 6 -3 13 4 6 -2 4 -14 -7 -16 -13 -25 -16 -34 -8 -7 5 -33 16 -58
23 -25 7 -52 22 -61 33 -12 15 -18 16 -24 6 -5 -8 -4 -11 3 -6 6 3 14 1 18 -5
7 -12 -40 -5 -81 12 -18 7 -18 8 5 10 14 1 29 1 33 0 5 -1 6 3 3 7 -3 5 -17 7
-31 4 -19 -3 -25 0 -25 14 0 14 -3 15 -12 6 -17 -17 -44 -16 -30 1 14 16 -1
42 -18 32 -9 -6 -9 -10 1 -16 12 -8 12 -11 0 -18 -11 -7 -7 -12 20 -20 l34
-11 -40 5 c-74 10 -92 16 -92 30 0 20 14 19 25 -1 7 -13 11 -14 17 -4 5 8 1
16 -9 22 -9 5 -16 18 -16 29 0 11 -5 17 -10 14 -6 -4 -8 -10 -5 -15 3 -4 -2
-14 -11 -21 -12 -10 -15 -10 -12 2 2 8 -3 13 -12 11 -9 -2 -5 6 10 21 25 24
50 31 50 15 0 -5 4 -6 10 -3 18 11 -13 34 -32 24 -10 -6 -18 -7 -18 -3 0 3 -6
2 -13 -5 -10 -8 -17 -7 -27 2 -10 10 -12 7 -7 -13 6 -24 5 -24 -8 -6 -20 26
-19 33 5 39 11 3 20 1 20 -4 0 -5 5 -9 11 -9 6 0 9 7 6 15 -4 8 -2 17 3 20 6
4 10 12 10 18 0 8 -3 8 -8 2 -9 -13 -70 -45 -85 -45 -6 0 -1 9 11 20 12 11 28
20 35 20 8 0 20 7 27 15 10 12 16 13 27 4 10 -9 18 -8 33 6 10 9 18 21 17 25
-3 11 13 9 40 -3 18 -8 20 -13 12 -24 -8 -9 -15 -10 -24 -3 -10 8 -17 6 -27
-8 -7 -11 -16 -20 -20 -22 -4 -1 -17 -4 -28 -7 -11 -3 -17 -9 -15 -13 3 -5 17
-2 32 5 18 10 31 11 39 4 8 -7 14 -7 19 1 3 5 -1 10 -9 10 -10 0 -13 6 -10 15
5 12 9 13 21 4 11 -10 18 -8 34 9 22 24 41 29 38 10 -3 -26 1 -48 10 -48 4 0
6 11 3 25 -6 35 2 31 27 -11 21 -35 21 -35 1 -29 -15 5 -18 3 -14 -9 3 -9 11
-16 18 -16 15 1 53 30 38 30 -7 0 -12 7 -12 16 0 8 -4 12 -10 9 -5 -3 -15 5
-22 19 -6 14 -17 26 -25 26 -7 0 -13 4 -13 8 0 5 -7 9 -15 9 -8 0 -15 -4 -15
-8 0 -4 -11 -2 -24 4 -13 7 -22 15 -20 18 5 9 -23 5 -32 -3 -3 -4 -12 -4 -20
-1 -8 3 -14 0 -14 -6 0 -6 -5 -11 -11 -11 -6 0 -8 7 -5 16 3 8 2 12 -3 9 -5
-3 -12 -1 -16 5 -3 5 1 10 9 10 19 0 21 11 4 28 -9 9 -9 12 -1 12 7 0 15 -4
18 -10 3 -5 14 -10 23 -10 14 0 14 1 0 13 -9 6 -18 24 -22 39 -5 22 -3 26 9
22 9 -4 15 -1 15 7 -1 19 -21 44 -43 52 -16 6 -16 9 -5 20 21 22 42 25 54 9
12 -17 54 -24 54 -10 0 4 -4 8 -10 8 -5 0 -10 5 -10 11 0 6 8 9 18 7 9 -2 16
-11 14 -20 -3 -20 26 -32 44 -17 12 10 18 6 16 -12 -1 -3 13 -3 29 -1 26 4 28
7 17 21 -11 14 -10 14 7 -1 14 -12 25 -14 35 -8 26 17 39 11 34 -15 -4 -21 -1
-25 18 -24 21 0 21 1 4 8 -18 7 -18 8 4 29 13 12 27 22 32 22 4 0 8 5 8 11 0
6 -7 8 -16 5 -8 -3 -13 -2 -10 3 3 5 -1 12 -10 15 -22 8 -26 8 -19 -4 3 -5 1
-10 -4 -10 -19 0 -12 19 14 36 14 9 22 21 19 26 -4 6 -10 6 -17 -1 -17 -17
-22 -13 -25 16 -1 15 4 30 10 35 20 12 28 9 21 -8 -4 -11 -1 -15 12 -12 14 2
19 -4 21 -27 2 -16 6 -39 8 -50 2 -11 5 -22 5 -24 1 -2 7 2 15 8 10 8 16 9 21
1 3 -5 1 -10 -4 -10 -6 0 -11 -4 -11 -10 0 -5 7 -10 16 -10 8 0 13 -4 9 -9 -3
-5 0 -13 6 -17 8 -4 9 -3 5 4 -4 7 -1 12 8 12 9 0 16 -5 16 -11 0 -6 9 -8 23
-4 40 13 40 23 -2 22 -40 -1 -60 7 -48 19 4 4 13 1 21 -5 9 -7 17 -8 20 -2 3
5 -7 12 -23 16 -35 7 -78 53 -73 78 2 10 1 25 -2 34 -5 12 -9 13 -21 3 -13
-11 -14 -10 -9 4 3 9 1 16 -6 16 -6 0 -8 5 -5 10 5 8 11 8 20 0 9 -7 16 -6 26
7 12 15 12 16 -7 11 -14 -4 -25 1 -33 14 -8 13 -19 18 -32 15 -23 -6 -24 -1
-4 19 8 9 19 12 25 9 11 -7 14 18 4 28 -11 11 -45 -13 -54 -39 -5 -13 -17 -24
-27 -24 -17 1 -17 1 0 14 12 9 14 16 8 21 -6 3 -11 1 -11 -6 0 -8 -6 -6 -18 4
-10 10 -24 17 -30 17 -18 0 -15 15 7 34 16 14 20 15 30 2 7 -8 18 -13 26 -10
7 3 16 1 20 -5 4 -8 13 -6 28 4 27 19 41 19 33 0 -3 -9 0 -15 8 -15 8 0 16 -7
20 -15 10 -26 29 -17 22 10 -5 18 -2 27 9 31 8 3 12 10 9 15 -3 5 -14 4 -26
-2 -15 -8 -19 -8 -14 0 4 6 16 16 27 21 15 8 19 8 17 -2 -2 -7 3 -12 10 -11
18 4 15 -14 -4 -21 -11 -4 -15 -14 -12 -31 3 -15 0 -26 -10 -30 -9 -3 -13 -14
-9 -30 2 -14 0 -28 -4 -31 -5 -3 -9 -10 -9 -15 0 -6 14 1 31 15 23 20 42 26
76 26 41 0 44 1 32 17 -10 11 -10 14 -1 9 7 -4 12 -2 12 6 0 7 10 1 23 -13 12
-14 29 -25 37 -25 8 1 21 -5 28 -14 11 -13 12 -13 10 0 -2 8 -11 20 -22 26
-13 8 -15 13 -7 18 14 9 15 26 1 26 -5 0 -9 -6 -7 -12 2 -15 -35 -11 -44 3 -3
5 -13 7 -22 3 -10 -3 -17 -1 -17 5 0 11 13 15 39 12 7 -2 10 2 7 8 -4 5 -1 13
4 16 7 5 5 12 -7 21 -23 17 -39 18 -24 0 14 -17 -1 -31 -41 -38 -23 -4 -25 -3
-18 16 6 15 2 28 -14 46 -11 13 -14 20 -6 14 11 -8 22 -7 40 2 25 14 21 18
-15 14 -16 -2 -17 1 -7 13 10 12 10 17 1 23 -8 5 -9 3 -4 -6 6 -10 0 -12 -23
-8 -23 3 -29 1 -22 -7 14 -17 -62 -59 -78 -43 -12 12 -13 10 -16 -14 0 -6 -7
-13 -15 -16 -10 -3 -12 0 -7 13 4 12 2 16 -8 12 -8 -3 -20 1 -26 8 -7 8 -17
12 -22 9 -5 -3 -1 -15 9 -27 10 -13 12 -17 3 -11 -19 14 -62 8 -76 -11 -6 -8
-14 -13 -18 -10 -3 3 -2 -1 4 -7 5 -7 10 -15 10 -18 0 -11 -35 -8 -42 4 -11
17 -9 28 3 20 8 -5 8 -1 0 14 -6 11 -11 23 -11 26 0 11 28 6 32 -6 2 -6 12 -9
21 -5 18 7 23 27 7 27 -5 0 -10 -5 -10 -11 0 -5 -5 -7 -10 -4 -8 5 -7 11 1 21
8 10 4 10 -20 -2 -18 -9 -38 -14 -45 -11 -7 3 -13 -1 -13 -8 0 -7 6 -11 14 -8
7 3 13 -2 13 -11 0 -9 -10 -20 -22 -25 -27 -10 -39 -4 -18 9 13 8 12 10 -2 10
-10 0 -18 -5 -18 -11 0 -6 -7 -9 -15 -6 -8 4 -17 2 -20 -4 -4 -5 -11 -7 -16
-4 -5 4 -9 1 -9 -5 0 -6 -5 -8 -11 -4 -8 5 -7 10 4 16 9 5 14 15 11 23 -4 8
-1 15 6 15 6 0 8 -5 5 -10 -4 -7 3 -9 22 -6 15 2 31 5 36 5 19 2 4 17 -20 19
-56 4 -68 3 -71 -7 -2 -5 -10 -7 -19 -4 -12 5 -14 3 -8 -7 5 -8 4 -11 -2 -7
-12 8 -36 -17 -26 -26 3 -4 13 -1 22 5 10 8 9 4 -3 -10 -21 -25 -41 -30 -33
-8 8 19 -3 28 -19 15 -9 -8 -11 -5 -7 11 3 11 10 23 16 27 6 3 7 1 3 -5 -4 -7
-1 -12 9 -12 10 0 13 5 9 12 -4 7 -3 8 4 4 7 -4 12 -2 12 3 0 6 -8 11 -17 11
-12 0 -14 3 -6 11 7 7 17 8 30 1 13 -7 24 -6 38 4 17 13 17 14 1 14 -14 0 -16
5 -11 30 4 19 3 30 -4 30 -6 0 -11 -4 -11 -10 0 -5 -4 -10 -10 -10 -5 0 -7 6
-4 14 3 7 -3 16 -12 20 -22 9 -30 0 -15 -17 9 -11 8 -17 -2 -26 -8 -6 -18 -7
-22 -3 -5 4 -5 1 -1 -5 4 -7 15 -13 24 -14 14 0 13 -2 -3 -9 -27 -12 -43 -12
-25 0 13 9 13 10 0 11 -8 1 -19 0 -25 -1 -5 -1 -7 2 -3 6 4 4 3 13 -3 21 -6 7
-8 13 -3 14 5 0 0 4 -10 8 -18 7 -16 11 19 34 43 29 32 38 -13 11 l-27 -16 25
21 c14 11 28 21 31 21 10 0 6 50 -3 50 -5 0 -8 10 -8 21 0 20 -1 21 -25 5 -25
-17 -25 -16 -13 3 16 27 54 24 54 -3 -1 -13 7 -22 19 -24 37 -7 47 -23 30 -42
-10 -11 -13 -20 -6 -24 6 -4 8 -13 4 -21 -3 -9 1 -16 8 -16 8 -1 19 -2 25 -3
7 0 20 -11 30 -23 17 -20 21 -21 39 -7 16 12 17 17 7 23 -11 7 -10 9 3 14 9 4
13 3 10 -2 -3 -5 -1 -12 4 -15 5 -4 12 -2 15 3 4 5 2 13 -4 16 -8 5 -8 11 0
20 7 8 9 19 5 25 -9 14 8 13 23 -2 7 -7 12 -9 12 -5 0 3 -9 14 -19 24 -16 15
-17 20 -5 31 8 7 15 10 15 7 9 -39 29 -75 41 -75 7 0 27 12 43 26 21 17 23 22
8 14 -12 -5 -25 -15 -28 -20 -3 -6 -13 -10 -22 -10 -14 0 -14 3 2 20 10 11 24
20 32 20 20 0 16 20 -4 21 -12 0 -13 2 -5 6 7 3 19 -1 27 -7 11 -9 15 -9 15
-1 0 6 8 11 19 11 10 0 24 7 31 15 15 18 7 19 -23 4 -21 -12 -21 -11 -6 12 8
13 13 32 11 42 -3 15 -6 16 -20 5 -10 -8 -13 -9 -9 -1 4 6 3 14 -3 18 -5 3
-10 2 -10 -3 0 -5 -11 -15 -25 -22 -17 -9 -22 -17 -15 -25 6 -7 4 -19 -5 -33
-10 -13 -12 -23 -5 -27 14 -9 3 -25 -17 -25 -13 0 -13 3 -3 15 7 8 9 15 4 15
-4 0 -3 5 4 12 16 16 15 28 -3 28 -8 0 -15 -4 -15 -9 0 -8 -23 -18 -62 -27
-10 -2 -18 1 -18 7 0 5 4 8 9 5 17 -11 32 20 22 46 -8 21 -5 26 22 42 l32 18
-20 -22 c-28 -31 -28 -50 0 -50 13 0 26 4 29 9 4 5 -3 7 -14 4 -21 -5 -28 11
-10 22 6 3 10 2 10 -4 0 -5 6 -8 13 -7 18 3 49 22 48 29 -1 4 2 8 7 9 4 0 13
8 20 17 12 15 13 14 8 -1 -3 -10 -1 -20 4 -23 6 -4 10 0 10 7 0 10 2 10 9 -1
5 -7 13 -11 19 -7 6 3 15 -1 20 -10 5 -9 15 -14 21 -10 6 4 8 12 5 18 -5 7 -2
8 6 3 10 -6 12 -3 7 14 -4 18 -3 20 9 10 12 -9 12 -15 2 -28 -12 -14 -11 -14
4 -3 14 11 15 19 7 40 -8 21 -7 29 8 40 17 13 17 13 -2 10 -11 -2 -19 2 -18 8
2 9 -4 9 -22 0 -27 -12 -33 -31 -12 -39 6 -3 -6 -5 -28 -5 -22 0 -32 2 -23 5
9 2 24 15 33 29 l16 25 -53 -4 c-38 -3 -52 -8 -50 -18 3 -9 -2 -8 -16 4 -22
20 -52 23 -52 5 0 -9 -3 -8 -10 2 -8 13 -11 12 -25 -5 -9 -12 -14 -14 -13 -6
2 10 -8 16 -32 18 -31 2 -33 1 -18 -11 20 -15 24 -36 7 -36 -5 0 -8 4 -5 9 3
4 -3 16 -13 25 -15 13 -36 16 -101 15 -47 -1 -76 -5 -69 -10 11 -6 10 -9 -4
-15 -9 -3 -24 -4 -32 0 -21 8 -19 -7 5 -27 24 -20 30 -21 26 -4 -1 6 -1 9 1 5
3 -5 11 -8 19 -8 20 0 17 -9 -8 -29 l-21 -18 27 -7 c30 -7 31 -29 1 -34 -9 -2
-15 0 -12 5 3 5 -3 9 -13 9 -11 0 -22 -6 -24 -12 -3 -8 3 -10 17 -7 19 4 18 2
-8 -21 -37 -31 -40 -31 -73 -4 -15 12 -19 18 -9 15 9 -4 17 -2 17 4 0 6 9 9
20 6 11 -3 18 -1 15 3 -3 5 0 10 6 12 9 3 -9 59 -28 87 -2 3 -10 -4 -18 -15
-8 -10 -15 -14 -15 -8 0 5 7 19 15 30 8 10 15 25 15 33 0 11 -3 11 -17 0 -11
-9 -14 -10 -9 -2 6 10 -215 13 -1066 13 -693 0 -1068 -4 -1058 -10 13 -8 13
-10 -2 -10 -9 0 -20 4 -23 10 -4 6 -443 10 -1256 10 l-1249 0 0 -3385z m4524
3316 c13 -14 14 -21 5 -27 -7 -4 -10 -3 -6 3 4 6 1 15 -6 21 -8 7 -21 3 -42
-14 -23 -18 -26 -24 -12 -24 9 0 17 -5 17 -11 0 -6 7 -9 15 -5 8 3 15 1 15 -4
0 -6 -5 -10 -11 -10 -5 0 -7 -5 -4 -10 5 -8 11 -7 21 1 8 6 14 8 14 4 0 -4 8
-1 18 6 15 13 16 12 3 -4 -13 -17 -12 -18 10 -16 39 3 59 0 59 -11 0 -6 -13
-8 -32 -5 -32 6 -32 6 -14 -14 15 -16 23 -18 40 -10 16 8 15 4 -6 -15 -27 -25
-38 -43 -18 -31 6 4 9 1 8 -6 -2 -6 3 -14 10 -16 7 -3 11 -1 10 4 -3 9 22 46
39 56 6 4 15 2 19 -5 4 -7 3 -10 -1 -5 -11 9 -46 -23 -39 -35 3 -5 14 -2 24 7
14 12 19 13 28 3 15 -19 -12 -55 -31 -40 -8 7 -18 7 -27 2 -19 -12 -43 -13
-36 -1 3 4 -3 16 -14 26 -11 10 -20 15 -20 10 0 -4 -7 -2 -15 5 -14 11 -19 7
-16 -12 0 -4 -6 -5 -14 -2 -20 8 -19 13 7 34 19 15 24 15 33 4 6 -8 15 -10 22
-6 9 6 3 17 -21 40 -29 27 -36 30 -46 17 -7 -8 -20 -15 -29 -15 -13 0 -13 2
-2 9 10 7 11 13 2 30 -7 11 -16 21 -22 21 -6 0 -6 -7 1 -19 6 -12 6 -22 1 -25
-8 -5 -8 -14 -2 -45 1 -2 7 2 15 8 9 7 17 8 20 3 3 -6 -6 -13 -20 -16 -20 -5
-23 -10 -15 -20 8 -9 7 -13 -3 -13 -9 0 -13 8 -10 24 4 23 4 23 -21 7 -21 -14
-23 -19 -13 -33 12 -14 11 -14 -4 -2 -20 15 -24 41 -7 41 5 0 7 5 3 12 -5 8
-13 5 -25 -10 -9 -12 -23 -22 -31 -23 -10 0 -10 -2 0 -6 14 -5 17 -33 3 -33
-5 0 -12 7 -15 16 -8 21 -8 49 0 41 4 -4 20 5 37 19 21 18 33 22 40 15 6 -6
18 -11 26 -11 11 0 8 7 -8 24 -21 22 -22 54 -1 41 5 -3 11 -1 14 4 11 16 -11
22 -24 6 -7 -8 -16 -12 -21 -9 -5 3 -9 0 -9 -6 0 -6 -5 -8 -12 -4 -7 5 -8 3
-3 -6 6 -9 -2 -11 -35 -5 -38 6 -41 5 -36 -12 4 -14 -2 -23 -23 -36 -32 -19
-41 -21 -41 -9 0 4 14 13 32 20 17 6 29 14 26 17 -3 3 -17 1 -31 -4 -39 -15
-24 10 18 30 24 11 39 13 51 6 13 -7 19 -7 22 1 2 7 10 12 18 12 9 0 12 5 8
12 -5 8 -2 9 10 5 14 -6 17 -3 12 8 -4 11 -2 14 7 8 18 -11 37 -12 37 -2 0 5
5 9 11 9 6 0 17 7 25 15 19 19 17 19 38 -4z m94 -348 c-10 -2 -18 -8 -18 -13
0 -4 -12 -11 -26 -14 -19 -5 -24 -10 -16 -18 6 -6 8 -17 4 -26 -4 -11 -1 -14
12 -9 11 4 15 3 10 -4 -4 -7 1 -9 12 -7 11 2 18 10 16 18 -2 10 0 11 11 2 10
-9 16 -9 25 0 7 7 12 9 12 4 0 -14 -29 -37 -48 -39 -29 -2 -22 -25 10 -29 24
-4 28 -1 28 18 0 24 25 40 36 22 4 -6 3 -8 -3 -5 -6 4 -13 0 -16 -8 -4 -9 -1
-12 9 -8 7 3 14 0 14 -6 0 -6 -4 -11 -10 -11 -6 0 -6 -9 -1 -22 15 -43 -12
-66 -39 -33 -19 23 -49 18 -56 -9 -7 -30 11 -66 33 -66 16 0 16 1 0 13 -26 19
-7 35 43 37 86 4 91 2 86 -24 -3 -18 1 -25 17 -30 12 -3 25 0 29 7 11 17 10
29 -2 22 -5 -3 -10 1 -10 9 0 9 -4 16 -10 16 -5 0 -10 5 -10 10 0 14 16 12 33
-5 13 -12 17 -8 32 31 25 65 50 58 92 -25 18 -35 38 -70 44 -77 9 -11 5 -16
-17 -24 -16 -5 -37 -14 -46 -20 -11 -6 -19 -6 -23 0 -3 6 0 10 7 10 8 0 6 5
-5 11 -14 8 -16 14 -6 25 9 11 7 14 -14 14 -20 0 -24 -4 -20 -20 3 -11 13 -21
22 -21 13 -1 13 -2 -2 -6 -9 -2 -15 -9 -11 -14 3 -5 10 -7 15 -4 5 4 9 4 9 1
0 -3 -10 -10 -21 -17 -15 -8 -19 -8 -15 0 4 6 2 11 -5 11 -9 0 -8 4 1 15 10
13 7 14 -27 11 -27 -2 -47 3 -61 15 -12 9 -18 19 -14 21 5 1 0 17 -11 33 -10
17 -17 22 -13 13 3 -10 0 -21 -7 -25 -7 -5 -17 -17 -23 -27 -16 -29 -61 -41
-101 -27 -18 7 -37 9 -43 6 -5 -3 -10 -1 -10 4 0 6 5 11 11 11 8 0 8 4 0 14
-16 19 -17 66 -3 93 6 11 9 23 6 26 -3 3 2 4 12 4 11 -1 20 8 24 24 5 17 3 26
-5 26 -7 0 -10 -9 -7 -21 3 -12 1 -17 -4 -13 -11 11 -13 56 -2 63 4 3 5 11 1
17 -15 24 -11 37 12 37 13 0 27 5 30 10 3 6 14 9 23 9 15 -1 15 -2 0 -6z
m-1208 -58 c-10 -12 -10 -15 2 -15 8 0 20 6 28 13 12 10 12 9 4 -3 -13 -21
-12 -55 3 -55 6 0 15 -3 19 -7 4 -5 19 -8 34 -8 33 0 54 -19 39 -36 -6 -7 -9
-30 -7 -51 2 -30 7 -38 23 -38 16 0 21 8 23 42 3 39 2 41 -20 35 -19 -5 -21
-3 -11 10 10 11 10 17 1 26 -7 7 -8 12 -4 12 5 0 3 7 -4 15 -10 12 -9 15 4 15
10 0 15 -4 11 -9 -7 -13 15 -26 40 -23 31 3 53 -14 37 -30 -14 -14 -17 -112
-3 -103 5 3 12 1 15 -4 4 -5 -2 -8 -11 -6 -10 1 -25 -3 -33 -10 -45 -38 -110
-24 -132 28 -16 35 -17 94 -4 116 7 11 5 13 -10 7 -40 -17 -57 -19 -50 -8 4 7
15 12 24 12 15 1 15 2 -2 15 -11 8 -14 15 -8 15 7 0 12 5 12 11 0 6 -6 9 -12
7 -7 -3 -18 0 -24 6 -8 8 -7 14 5 23 22 17 26 16 11 -2z m1628 -7 c-2 -6 6
-16 17 -22 11 -7 21 -17 23 -25 2 -8 -9 -5 -28 9 l-30 22 11 -26 c19 -40 67
-34 60 7 -1 5 3 6 9 2 6 -3 8 -11 5 -16 -4 -5 0 -9 7 -9 10 0 9 -3 -2 -10 -8
-5 -12 -10 -10 -12 3 -2 21 -16 40 -33 19 -16 30 -23 24 -15 -6 8 -10 24 -10
35 1 15 8 20 31 21 17 0 37 4 44 8 15 10 39 -10 26 -21 -4 -5 -10 -2 -12 5 -3
6 -9 9 -14 6 -6 -4 -6 -11 1 -19 8 -10 8 -15 -1 -21 -8 -5 -9 -3 -4 6 6 9 4
11 -4 6 -7 -5 -11 -25 -10 -50 3 -49 -8 -86 -24 -86 -7 0 -23 10 -37 23 -56
50 -60 52 -60 27 0 -15 5 -20 14 -17 10 4 13 1 9 -9 -3 -8 0 -21 7 -29 9 -11
9 -15 1 -15 -7 0 -9 -5 -5 -12 4 -7 3 -8 -4 -4 -6 4 -8 14 -5 23 4 11 2 14 -8
11 -8 -3 -14 -10 -14 -16 0 -7 -4 -11 -10 -9 -5 1 -9 8 -7 15 2 6 -4 12 -12
12 -11 0 -13 12 -9 59 4 44 2 65 -10 81 -8 12 -13 28 -10 36 3 8 -5 16 -24 20
-15 3 -34 13 -40 22 -11 14 -13 14 -13 1 0 -8 5 -20 12 -27 13 -13 7 -22 -18
-26 -10 -2 -20 -8 -22 -14 -2 -7 3 -10 12 -6 18 7 21 -7 5 -23 -8 -8 -8 -13 0
-17 6 -4 11 -2 11 3 0 6 8 11 17 11 15 0 14 -2 -3 -15 -17 -14 -17 -14 10 -3
l28 12 -22 18 c-17 14 -19 18 -6 18 9 0 15 3 15 8 -3 18 2 32 12 32 6 0 9 -9
6 -20 -3 -11 -2 -18 2 -16 3 2 11 -6 17 -19 10 -20 9 -22 -5 -18 -9 4 -13 2
-9 -2 10 -11 -29 -38 -42 -30 -6 3 -10 1 -10 -4 0 -6 -5 -11 -11 -11 -5 0 -8
4 -5 9 4 5 2 11 -3 13 -5 1 -11 10 -13 18 -2 8 -9 21 -16 28 -10 11 -8 17 13
34 21 16 23 23 14 34 -9 11 -9 18 -1 26 13 13 46 2 37 -12 -10 -16 5 -12 32
10 30 23 34 24 31 8z m-951 -62 c-3 -8 2 -16 14 -19 14 -4 19 -14 19 -37 0
-21 4 -30 13 -27 6 2 11 12 11 21 -1 10 1 15 4 12 3 -3 12 0 20 7 12 9 16 9
19 -1 3 -6 9 -10 14 -7 5 4 6 -1 2 -11 -5 -15 -7 -15 -15 0 -5 9 -13 14 -19
11 -14 -9 -11 -27 4 -19 7 4 9 3 4 -2 -5 -5 -14 -9 -20 -9 -7 -1 -11 -6 -10
-12 3 -15 -56 7 -79 30 -10 9 -23 17 -28 17 -18 0 -23 -30 -11 -56 9 -20 17
-25 39 -22 15 2 26 8 25 15 -2 7 4 10 12 7 8 -4 15 -17 15 -31 0 -18 -8 -28
-30 -36 -16 -6 -30 -15 -30 -19 0 -13 -71 20 -86 40 -40 53 5 142 72 142 19 0
34 5 34 10 0 6 3 10 6 10 3 0 4 -6 1 -14z m203 -21 c8 -9 8 -15 0 -20 -9 -6
-15 -105 -5 -105 17 0 55 26 55 37 0 9 5 11 13 6 6 -4 14 -8 17 -8 3 0 14 -6
25 -13 l20 -12 -20 -12 c-11 -7 -23 -13 -27 -14 -5 -1 -10 -3 -13 -4 -3 -1 -9
-3 -14 -4 -5 0 -12 -4 -16 -7 -10 -11 -108 0 -119 12 -8 8 -7 13 2 16 19 7 15
93 -5 116 -10 11 -12 17 -5 13 7 -4 14 -1 17 7 7 16 59 11 75 -8z m-3137 9
c12 -4 14 -18 10 -65 -6 -60 2 -74 27 -44 16 19 30 10 30 -19 0 -36 -17 -44
-83 -39 -34 3 -64 7 -67 10 -2 2 1 13 8 23 16 26 16 97 0 103 -10 3 -10 7 1
20 14 17 47 22 74 11z m377 -4 c11 -7 12 -14 5 -27 -6 -10 -12 -35 -14 -55 -2
-32 1 -38 17 -38 11 0 23 8 26 17 6 15 8 15 22 2 12 -13 13 -20 1 -47 -10 -24
-16 -29 -27 -21 -8 5 -33 9 -55 8 -22 0 -46 0 -52 0 -15 1 -18 31 -3 31 6 0
10 23 10 50 0 28 -4 50 -10 50 -14 0 -12 27 3 33 21 9 61 7 77 -3z m388 -6
c44 -31 16 -104 -40 -104 -21 0 -24 -16 -5 -24 17 -7 -21 -36 -47 -36 -35 0
-49 15 -41 41 11 35 12 99 1 102 -5 2 -7 11 -3 20 9 23 103 24 135 1z m171 2
c8 -10 9 -16 1 -21 -5 -3 -10 -23 -10 -45 0 -47 26 -63 40 -24 13 34 13 61 -2
66 -20 7 0 38 25 38 26 0 54 -24 39 -34 -5 -3 -12 -29 -14 -58 -8 -77 -55
-107 -123 -76 -27 12 -31 22 -39 105 -3 35 -1 53 7 57 25 10 65 6 76 -8z m241
-21 l22 -36 18 33 c12 23 26 34 45 36 34 4 54 -13 37 -30 -14 -14 -16 -108 -2
-108 6 0 10 -7 10 -15 0 -18 -48 -23 -89 -9 -10 3 -11 7 -1 19 6 8 10 20 8 26
-2 7 -10 -2 -17 -20 -10 -23 -18 -30 -31 -26 -10 3 -21 2 -24 -3 -3 -5 -15 -8
-28 -6 -13 1 -26 3 -30 3 -12 1 -9 31 2 31 14 0 12 94 -2 108 -10 10 -10 15 2
22 30 19 58 11 80 -25z m328 19 c44 -31 16 -104 -40 -104 -10 0 -18 -4 -18
-10 0 -5 5 -10 10 -10 6 0 10 -5 10 -10 0 -20 -24 -36 -47 -32 -13 2 -31 -2
-41 -9 -15 -13 -16 -12 -3 4 7 9 9 17 3 17 -6 0 -8 24 -5 64 4 43 2 66 -6 71
-9 5 -9 10 0 21 16 19 108 18 137 -2z m696 0 c17 -44 -11 -69 -44 -39 -11 10
-26 15 -35 12 -22 -9 -19 -60 5 -82 11 -10 20 -13 20 -7 0 6 -5 12 -12 14 -6
2 -9 12 -5 21 6 17 50 23 81 11 17 -7 22 -34 7 -34 -5 0 -12 -9 -16 -20 -4
-12 -22 -24 -45 -31 -34 -10 -43 -9 -73 9 -27 15 -38 17 -47 9 -10 -9 -11 -9
-4 3 5 8 9 35 9 59 1 60 36 91 104 91 35 0 51 -4 55 -16z m518 -7 c15 -24 7
-46 -23 -61 -22 -11 -28 -12 -20 -2 8 10 6 17 -8 30 -11 10 -25 15 -30 11 -16
-9 -13 -51 3 -65 19 -15 62 -9 58 9 -3 12 -1 12 13 1 11 -9 14 -22 10 -37 -3
-13 -2 -23 2 -22 22 4 31 -3 26 -19 -2 -11 -14 -18 -28 -18 -17 0 -22 5 -20
18 5 22 -8 23 -28 4 -12 -12 -20 -12 -55 4 -69 31 -80 106 -24 151 22 17 35
20 71 15 25 -3 48 -12 53 -19z m501 -43 c-5 -14 -1 -16 20 -12 14 3 25 1 24
-5 -1 -5 4 -12 12 -15 10 -3 12 0 7 14 -6 15 -4 16 5 7 6 -6 19 -9 28 -6 14 4
14 3 1 -6 -8 -6 -12 -11 -7 -12 4 -1 12 -3 17 -4 6 -1 14 -3 19 -4 20 -3 19
-31 -2 -41 -20 -10 -21 -10 -4 3 11 9 14 18 8 21 -5 4 -13 0 -18 -8 -6 -11
-13 -12 -23 -6 -12 8 -12 10 5 10 15 0 16 3 7 12 -9 9 -15 9 -24 -1 -11 -10
-8 -16 10 -30 l23 -17 -28 -14 c-15 -7 -31 -14 -35 -14 -3 -1 -10 -5 -15 -10
-4 -5 -3 -6 4 -2 6 3 15 1 19 -5 4 -7 3 -9 -4 -5 -6 3 -14 1 -17 -4 -4 -7 -19
-8 -38 -4 -18 3 -28 3 -24 -2 5 -5 12 -9 15 -9 4 0 12 -3 18 -7 6 -4 25 -3 43
2 19 5 29 5 26 -1 -4 -5 -13 -9 -21 -9 -8 0 -17 -7 -20 -15 -4 -8 -15 -15 -26
-15 -13 0 -18 5 -15 14 4 10 1 13 -9 9 -10 -3 -12 -12 -8 -27 6 -21 6 -21 -18
2 -13 12 -28 22 -34 22 -5 0 0 -8 11 -17 17 -13 17 -15 2 -10 -11 4 -20 1 -23
-8 -4 -8 -11 -15 -16 -15 -7 0 -6 5 1 13 13 17 5 27 -17 21 -10 -3 -1 3 18 14
23 12 39 15 48 9 8 -6 12 -6 12 1 0 6 -9 14 -20 17 -23 7 -27 25 -5 25 8 0 15
4 15 8 0 9 68 42 84 41 5 -1 14 7 19 16 7 13 5 20 -5 26 -36 20 -61 47 -54 57
11 18 16 14 9 -4z m311 -128 c-12 -9 -14 -15 -5 -20 18 -11 3 -26 -27 -26 -20
0 -23 3 -12 9 8 6 18 7 24 4 5 -3 6 -1 2 5 -7 12 -36 9 -79 -9 l-29 -12 38
-17 c33 -16 35 -18 18 -28 -12 -7 -14 -12 -6 -12 15 0 75 39 80 52 2 4 8 8 14
8 7 0 6 -5 -1 -14 -8 -9 -8 -16 -2 -20 5 -4 13 -1 16 5 4 6 17 15 29 20 21 9
21 10 -1 5 -24 -4 -32 8 -10 18 6 3 2 3 -10 1 -27 -7 -38 9 -17 26 13 10 17
10 24 0 4 -8 16 -11 28 -7 12 4 23 2 28 -5 5 -9 2 -10 -9 -6 -19 7 -23 -8 -6
-18 7 -5 3 -14 -11 -27 -12 -11 -24 -18 -27 -14 -3 3 -12 -1 -20 -9 -8 -8 -20
-15 -26 -15 -7 0 -6 4 3 10 13 9 13 10 0 9 -8 0 -24 -4 -35 -8 -19 -8 -19 -8
3 -15 21 -7 22 -26 1 -26 -6 0 -8 4 -5 9 3 5 -1 11 -9 15 -8 3 -17 1 -21 -5
-3 -6 -12 -8 -19 -5 -8 3 -17 -4 -20 -15 -4 -10 -11 -16 -17 -13 -6 4 -8 -3
-6 -17 3 -23 39 -36 37 -14 0 6 -8 9 -17 7 -12 -2 -10 2 7 14 19 14 25 14 32
3 12 -19 11 -29 -1 -29 -5 0 -10 -7 -10 -15 0 -9 6 -12 15 -9 18 7 20 -11 3
-22 -6 -4 -23 -8 -37 -10 -14 -1 -30 -2 -34 -3 -5 -1 -5 -5 -2 -11 3 -5 0 -10
-8 -10 -8 0 -22 -9 -31 -19 -10 -11 -28 -18 -41 -16 -14 1 -22 -2 -19 -6 8
-13 35 -11 67 5 15 8 27 13 27 10 0 -8 -24 -30 -40 -37 -11 -5 -9 -6 5 -6 11
1 23 0 28 -1 4 -1 12 -3 19 -4 18 -2 22 -26 4 -26 -9 0 -17 -4 -17 -10 -1 -5
-3 -14 -4 -20 -1 -5 -3 -14 -4 -20 0 -5 -10 -10 -21 -10 -11 0 -20 -4 -20 -10
0 -17 39 -5 60 18 12 12 30 22 40 22 11 0 20 5 20 10 0 12 2 12 -38 1 -38 -11
-43 -5 -7 9 26 10 35 40 13 41 -7 0 -2 5 12 11 l25 11 -25 6 c-16 4 -26 14
-28 28 -2 17 1 21 12 17 8 -3 12 -12 9 -21 -5 -12 -1 -14 14 -9 23 7 42 -22
23 -34 -8 -5 -6 -9 5 -13 11 -5 18 1 24 16 11 28 3 56 -10 35 -7 -10 -9 -9 -9
5 0 9 -5 17 -11 17 -8 0 -7 5 1 16 19 22 50 37 50 24 0 -5 -6 -10 -13 -10 -8
0 -14 -6 -14 -14 0 -11 5 -12 24 -3 13 5 23 15 23 22 0 6 7 12 15 12 23 0 18
-10 -18 -34 -17 -13 -26 -23 -20 -23 7 0 14 4 18 10 3 5 12 7 20 4 10 -4 16 5
21 30 4 26 11 36 25 36 11 0 19 4 19 9 0 5 9 11 21 14 17 5 18 3 8 -9 -6 -8
-9 -17 -6 -21 4 -3 9 1 13 10 5 15 9 15 36 1 16 -9 28 -18 25 -21 -3 -2 -15 1
-27 7 -25 14 -43 2 -30 -20 13 -22 62 -1 67 28 1 13 -1 21 -6 17 -5 -3 -12 -1
-15 4 -4 5 -2 13 4 16 8 5 7 11 -1 21 -8 10 -8 14 0 14 6 0 11 5 11 12 0 9 -3
9 -12 0 -18 -18 -30 -14 -23 8 9 28 -7 25 -33 -5 l-22 -25 23 5 c28 7 50 -14
37 -35 -7 -12 -12 -12 -28 3 -14 13 -21 14 -31 4 -9 -9 -14 -9 -21 3 -13 21 5
47 49 70 34 17 41 18 51 5 10 -12 16 -13 26 -4 9 7 14 8 14 1 0 -6 -4 -12 -9
-14 -17 -6 -23 -48 -8 -54 9 -3 13 -13 10 -25 -4 -12 3 -26 18 -39 l24 -19
-22 4 c-14 2 -22 -1 -20 -8 1 -8 -13 -12 -38 -13 -38 0 -67 13 -59 27 2 4 -2
12 -10 18 -10 9 -17 7 -27 -6 -8 -9 -9 -14 -2 -10 6 4 14 3 17 -2 4 -5 -4 -12
-16 -14 -16 -3 -13 -5 11 -6 19 0 32 -4 28 -7 -3 -4 0 -19 9 -35 9 -18 11 -29
4 -29 -6 0 -8 -5 -5 -10 5 -8 11 -8 20 0 9 8 15 8 20 0 8 -13 -37 -31 -49 -19
-17 15 -29 10 -16 -6 15 -18 8 -28 -22 -32 -17 -3 -18 -1 -9 11 20 24 -69 15
-106 -11 -17 -13 -41 -23 -52 -23 -12 0 -21 -6 -21 -15 0 -21 11 -19 50 10 19
14 36 21 38 15 2 -5 11 -10 21 -10 12 0 17 -9 18 -32 0 -20 -1 -24 -4 -10 -5
23 -43 52 -43 32 0 -6 6 -13 14 -16 16 -6 14 -40 -3 -36 -6 1 -11 -3 -11 -9 0
-6 6 -9 13 -6 6 2 17 -3 23 -11 9 -12 12 -12 23 2 12 14 11 16 -5 10 -16 -6
-17 -5 -6 7 6 7 12 21 12 31 0 10 5 18 11 18 5 0 7 -5 3 -11 -5 -9 1 -10 20
-5 18 4 25 3 21 -4 -3 -5 -2 -10 4 -10 5 0 9 9 8 20 -1 21 -27 29 -27 8 0 -6
-9 -2 -21 10 -24 27 -21 53 3 28 11 -10 19 -12 23 -6 4 6 12 7 18 3 19 -12 47
-14 47 -4 0 6 -5 13 -12 17 -7 5 -8 2 -3 -7 5 -8 6 -12 2 -9 -8 7 -8 25 1 25
4 0 13 4 21 9 10 6 16 5 19 -2 2 -7 10 -12 18 -12 8 0 14 -4 14 -10 0 -15 -11
-12 -32 7 -16 14 -18 14 -18 1 0 -9 9 -18 20 -21 11 -3 20 -10 20 -17 0 -6 -5
-8 -12 -4 -9 5 -9 2 1 -9 12 -15 11 -17 -3 -17 -9 0 -17 0 -18 1 -8 2 -168
-84 -168 -90 0 -4 -17 -7 -37 -5 -26 1 -37 7 -34 16 2 7 4 19 4 26 0 8 8 12
17 9 10 -2 16 2 16 13 0 10 -6 16 -13 13 -7 -3 -13 0 -13 6 0 6 -9 11 -20 11
-14 0 -18 -5 -14 -17 4 -14 2 -13 -7 2 -17 28 -16 28 -29 20 -9 -6 -9 -9 -1
-15 9 -5 7 -11 -5 -21 -10 -8 -15 -9 -11 -2 12 19 -9 24 -39 8 -16 -8 -24 -15
-19 -15 6 0 -3 -7 -19 -15 -31 -17 -46 -19 -46 -7 1 10 48 43 66 46 8 1 13 6
12 12 -1 5 -9 8 -18 6 -8 -1 -5 4 8 11 26 15 18 31 -9 17 -12 -7 -20 -6 -25 2
-4 6 -3 8 3 5 12 -8 39 20 29 30 -3 3 -6 1 -6 -6 0 -7 -4 -10 -9 -7 -5 3 -14
-1 -21 -9 -7 -8 -16 -13 -20 -10 -5 3 -11 1 -15 -5 -8 -13 -25 -13 -25 -1 0
10 39 27 53 23 4 -1 7 5 7 13 0 14 -2 14 -23 0 -13 -8 -27 -12 -30 -9 -4 4 -9
-1 -13 -10 -3 -9 -15 -16 -26 -16 -10 0 -16 -5 -13 -10 4 -6 3 -10 -2 -9 -4 1
-10 1 -13 -1 -20 -7 -50 -8 -46 -1 6 10 -28 41 -66 61 -21 10 -25 16 -17 27 6
7 16 10 21 7 6 -4 5 -10 -3 -15 -8 -5 -12 -9 -9 -10 3 0 16 -2 29 -5 13 -2 36
-15 52 -28 27 -23 31 -24 59 -9 17 8 28 19 24 24 -3 6 -12 5 -22 -3 -13 -11
-14 -11 -10 2 3 11 17 15 47 14 27 -1 41 2 38 10 -4 12 -29 16 -37 4 -10 -13
-52 4 -46 18 3 7 1 16 -4 19 -4 3 -10 0 -12 -6 -3 -9 -9 -9 -25 0 -13 6 -24 7
-27 2 -4 -5 0 -12 6 -14 10 -4 9 -8 -2 -16 -8 -6 -18 -11 -21 -11 -9 0 -33 53
-32 73 0 10 -2 15 -5 12 -3 -2 -11 0 -17 5 -9 8 -12 4 -11 -12 1 -17 -4 -22
-16 -20 -10 2 -18 -2 -18 -9 0 -7 -11 -10 -30 -7 -26 4 -29 2 -24 -14 3 -10 1
-18 -5 -18 -6 0 -11 7 -11 15 0 9 -6 12 -17 8 -15 -5 -16 -3 -5 8 19 21 14 27
-20 24 -18 -2 -35 -3 -37 -4 -2 -1 6 -9 17 -20 12 -10 19 -21 15 -25 -9 -8
-23 -8 -22 2 3 20 -3 23 -25 9 -13 -9 -27 -13 -30 -10 -4 4 6 12 21 19 27 12
27 13 -17 11 -25 -1 -48 -6 -52 -12 -5 -6 -12 -5 -20 3 -7 8 -8 13 -3 12 6 -2
15 -1 20 0 18 4 39 7 68 8 16 1 26 6 23 11 -3 5 1 12 10 15 24 9 36 7 28 -5
-4 -7 0 -9 14 -5 11 4 23 2 26 -3 4 -6 13 -8 21 -4 8 3 15 0 15 -6 0 -11 26
-5 47 12 16 12 -11 42 -28 31 -8 -4 -7 -9 2 -15 11 -7 11 -9 -1 -9 -8 0 -22 5
-30 10 -12 7 -7 12 24 25 35 15 40 15 74 -3 27 -14 36 -25 35 -41 -2 -18 1
-21 24 -17 15 3 32 1 39 -5 8 -7 14 -6 19 1 5 8 10 8 20 0 10 -8 15 -8 21 1 4
7 3 9 -3 6 -6 -4 -17 0 -24 9 -11 14 -10 18 6 31 18 14 18 15 2 9 -10 -3 -22
-6 -27 -6 -4 0 -6 -10 -3 -21 5 -19 3 -20 -18 -14 -13 4 -26 9 -28 11 -4 4 19
26 44 40 10 6 20 15 22 21 6 16 -26 24 -47 13 -13 -7 -21 -7 -25 0 -6 9 7 14
27 11 4 0 12 8 18 19 6 11 15 18 21 15 5 -4 7 -10 4 -15 -3 -5 0 -12 6 -16 9
-5 10 0 6 15 -3 15 1 24 14 31 22 12 25 1 7 -19 -9 -9 -2 -8 19 3 28 14 32 14
37 0 14 -37 6 -64 -26 -84 -18 -11 -37 -22 -43 -24 -5 -2 -6 -7 -2 -12 4 -5
12 -2 17 6 14 22 23 5 10 -19 -14 -27 -6 -41 20 -36 11 2 22 -1 25 -6 4 -5 10
-7 15 -4 4 3 11 -2 14 -10 4 -13 10 -14 26 -5 27 14 25 24 -5 38 -18 8 -25 8
-25 1 0 -7 -7 -8 -17 -4 -10 4 -24 8 -30 8 -17 0 -16 2 3 21 8 9 27 16 40 16
14 0 23 4 19 9 -7 12 7 21 38 23 14 1 24 5 21 9 -2 4 1 11 7 15 7 4 9 3 5 -4
-3 -6 -2 -13 4 -17 5 -3 10 1 10 9 0 11 9 16 27 16 26 0 26 1 10 17 -14 15
-21 16 -37 5 -11 -7 -20 -8 -20 -3 0 5 7 11 15 15 15 5 22 28 8 24 -5 -2 -8 2
-8 7 0 6 3 9 7 8 3 -1 12 5 20 14 11 14 10 16 -8 11 -17 -4 -20 -1 -16 23 3
21 0 27 -12 25 -22 -3 -33 -16 -13 -16 11 0 15 -7 12 -27 -2 -16 -4 -29 -6
-30 -2 -4 -6 -21 -8 -35 -1 -9 -4 -8 -11 2 -5 8 -10 10 -10 5 0 -6 5 -16 11
-22 7 -7 5 -15 -6 -27 -18 -18 -35 -21 -35 -6 0 6 -6 10 -14 10 -13 0 -13 4
-1 27 10 18 11 31 5 37 -20 20 -9 26 15 10 14 -9 28 -14 32 -10 3 3 2 6 -4 6
-14 0 -24 38 -11 42 5 2 -10 4 -34 4 -24 1 -37 -1 -29 -4 11 -3 11 -6 1 -12
-8 -5 -19 -2 -27 5 -15 15 -18 29 -4 20 5 -3 16 3 23 13 7 10 31 26 53 37 l40
19 -33 8 -34 9 28 24 c15 13 32 21 38 18 6 -4 4 -9 -4 -11 -8 -3 -21 -12 -30
-21 -13 -13 -13 -14 1 -9 9 4 22 1 28 -5 8 -8 11 -7 11 3 0 7 3 11 6 8 3 -4 1
-15 -5 -26 -15 -29 11 -36 39 -12 12 11 31 22 41 25 11 4 16 11 13 17 -4 7 4
8 25 3 20 -4 31 -3 31 4 0 6 8 19 18 29 16 17 17 17 20 -1 2 -10 -4 -24 -14
-31z m-1025 -383 c-6 -7 -9 -13 -5 -13 3 0 8 0 11 0 3 0 4 1 3 3 -4 4 37 47
45 47 5 0 4 -7 -3 -15 -10 -12 -10 -19 -2 -27 18 -18 14 -30 -7 -23 -10 3 -25
0 -32 -8 -8 -7 -29 -19 -46 -26 -19 -8 -33 -21 -33 -30 0 -9 -5 -22 -12 -29
-9 -9 -7 -12 12 -11 14 1 30 1 35 -1 21 -5 36 0 29 11 -4 7 -1 10 6 7 8 -2 16
-11 18 -19 3 -8 1 -11 -3 -7 -5 4 -14 3 -21 -3 -8 -6 -20 -9 -27 -6 -7 3 -18
-3 -24 -12 -7 -11 -22 -17 -40 -16 -23 2 -55 -10 -92 -33 -3 -1 4 -9 15 -18
10 -8 13 -13 6 -9 -6 3 -15 -1 -18 -9 -3 -9 -14 -16 -23 -16 -15 1 -15 2 0 13
9 7 15 22 14 34 -1 23 -15 45 -15 25 0 -7 -7 -12 -15 -12 -8 0 -15 5 -15 11 0
5 5 7 10 4 6 -3 10 -1 10 5 0 7 7 10 15 6 10 -4 15 1 15 14 0 13 -5 18 -15 14
-8 -4 -15 -1 -15 6 0 6 5 8 10 5 6 -3 10 0 10 7 0 9 2 10 8 1 5 -8 12 -8 25 2
18 13 17 14 -4 17 -15 2 -23 11 -25 28 -3 21 -2 22 7 7 9 -16 12 -16 31 -2 15
10 26 11 33 5 8 -7 24 -5 46 5 l34 15 -62 -4 c-35 -1 -63 1 -63 5 0 5 3 8 8 7
4 -1 18 4 30 11 13 7 26 10 30 7 3 -3 -1 -7 -9 -7 -8 -1 6 -5 31 -9 31 -5 48
-3 57 6 10 9 10 15 2 20 -8 5 -8 9 1 14 9 6 9 13 0 31 -13 24 -13 24 9 5 16
-15 18 -22 10 -33z m101 18 c0 -10 11 -23 24 -29 21 -10 26 -8 31 8 7 22 25
26 41 10 7 -7 22 -6 47 5 20 8 37 11 37 6 0 -5 -13 -14 -30 -20 -16 -5 -30
-14 -30 -19 0 -11 30 -25 38 -17 3 3 0 5 -6 5 -7 0 -12 5 -12 11 0 7 10 5 26
-6 23 -15 27 -15 43 -1 20 18 35 21 25 5 -3 -6 0 -16 7 -21 11 -8 10 -9 -3 -4
-10 3 -18 2 -18 -2 0 -4 -18 -7 -41 -5 -41 2 -41 2 -20 -16 16 -14 18 -20 8
-24 -7 -3 -19 4 -25 14 -7 10 -18 19 -25 19 -8 0 -7 -4 3 -10 8 -5 15 -15 15
-22 0 -21 68 -19 83 3 7 10 19 19 27 19 8 0 18 8 24 17 5 10 13 14 17 10 4 -4
-1 -13 -11 -21 -11 -8 -14 -15 -8 -19 6 -4 16 0 23 8 19 23 50 19 50 -7 1 -21
2 -22 14 -5 7 9 19 17 26 17 10 0 10 3 0 15 -7 8 -16 13 -20 10 -5 -3 -12 -1
-15 5 -5 8 -11 7 -21 -1 -9 -7 -14 -8 -14 -1 0 6 -6 12 -12 15 -7 2 -5 3 5 2
9 -2 17 1 17 5 0 5 8 7 18 5 9 -1 16 -8 15 -13 -2 -6 4 -9 12 -6 8 4 15 1 15
-5 0 -6 7 -8 15 -5 12 5 13 9 4 20 -6 8 -17 13 -23 12 -6 -2 -13 1 -14 7 -1 5
11 11 27 13 22 2 35 -4 56 -30 26 -30 27 -31 21 -8 l-7 25 21 -24 c11 -13 24
-31 29 -39 6 -11 13 -12 29 -3 34 18 49 12 22 -8 -13 -11 -28 -17 -32 -15 -4
3 -8 0 -8 -5 0 -13 13 -14 26 -2 16 15 54 23 54 12 0 -6 -7 -11 -16 -11 -8 0
-22 -7 -31 -15 -8 -9 -23 -13 -33 -10 -28 9 -70 -5 -70 -24 0 -13 2 -13 9 -2
11 16 34 5 25 -12 -4 -7 -3 -8 2 -4 5 5 9 13 9 18 0 5 3 9 8 9 4 0 12 0 17 0
6 0 10 -5 10 -11 0 -5 -5 -7 -12 -3 -7 5 -8 3 -3 -6 6 -10 12 -7 26 11 15 20
21 22 36 13 10 -6 19 -16 19 -23 3 -21 4 -22 14 -16 6 4 7 12 3 18 -11 17 -11
57 -1 57 5 0 7 4 4 9 -11 17 6 42 24 36 11 -4 20 1 24 11 5 14 9 15 19 4 9
-10 9 -14 0 -17 -7 -2 -9 -12 -6 -21 3 -9 3 -14 -2 -10 -10 10 -48 -18 -51
-37 -1 -8 2 -12 7 -9 6 3 16 1 23 -5 10 -8 17 -7 26 4 7 8 17 15 22 15 6 0 23
9 39 21 18 13 29 16 27 8 -2 -7 3 -13 11 -14 8 0 19 -9 25 -20 6 -11 16 -23
21 -27 13 -9 13 -31 1 -40 -17 -11 1 -20 24 -13 20 6 21 7 3 20 -17 12 -16 14
10 20 15 4 31 4 34 1 10 -10 -158 -175 -181 -178 -12 -2 -20 -10 -18 -17 4
-17 -38 -62 -50 -55 -4 3 -6 10 -3 15 14 22 -4 6 -20 -18 -16 -24 -16 -26 -1
-20 10 4 15 3 11 -3 -10 -15 -33 -12 -43 6 -7 12 -18 15 -38 11 -16 -3 -37 -1
-46 4 -14 7 -16 6 -12 -6 4 -8 10 -15 16 -15 5 0 6 -4 3 -10 -3 -5 -16 -10
-28 -10 -13 0 -33 -7 -45 -16 -29 -20 -28 -8 1 18 12 11 16 17 9 13 -7 -4 -19
-2 -27 5 -9 8 -15 8 -20 0 -3 -6 -11 -8 -16 -4 -5 3 -6 10 -3 16 4 7 2 8 -4 4
-7 -4 -12 -1 -12 8 0 18 -25 22 -35 6 -4 -6 -11 -8 -16 -4 -5 3 1 14 13 25
l23 20 -32 -17 c-26 -15 -34 -15 -47 -5 -9 8 -16 20 -16 28 0 14 -3 14 -23 0
-19 -12 -26 -13 -41 -1 -18 13 -18 14 5 33 13 11 20 23 16 28 -5 4 -18 -3 -29
-17 -11 -14 -25 -24 -29 -22 -5 1 -9 -2 -9 -7 0 -5 11 -12 25 -15 14 -4 23
-11 20 -17 -5 -6 -12 -5 -23 3 -13 11 -14 11 -7 -1 5 -9 2 -18 -9 -27 -10 -7
-13 -15 -7 -18 5 -4 13 -2 16 4 5 8 12 7 23 -2 9 -7 13 -8 9 -2 -4 6 3 20 15
30 12 11 18 14 14 7 -4 -7 2 -17 14 -23 11 -6 20 -7 20 -3 0 4 5 2 11 -4 6 -6
18 -9 27 -6 10 4 13 2 8 -5 -4 -7 -2 -12 4 -12 6 0 9 -4 6 -9 -3 -5 1 -12 10
-15 11 -4 15 0 14 17 -3 38 -1 41 20 22 19 -17 19 -19 3 -37 -10 -11 -12 -18
-6 -16 6 2 11 0 12 -4 1 -12 -6 -10 -39 7 -17 9 -30 20 -30 25 0 5 -6 7 -14 4
-8 -3 -24 4 -36 16 -11 11 -26 18 -32 14 -8 -5 -5 -10 8 -15 11 -5 -23 -8 -81
-7 -55 0 -113 -3 -129 -7 -21 -6 -27 -5 -22 3 4 8 2 10 -7 6 -8 -3 -41 8 -73
25 -36 18 -51 30 -39 31 17 0 17 2 5 10 -19 12 -8 13 24 0 16 -6 27 -6 31 0 4
6 -8 13 -24 16 -25 5 -29 9 -20 20 6 8 15 12 19 9 5 -3 10 0 12 7 3 7 12 9 22
5 10 -4 14 -12 10 -18 -4 -7 -3 -9 4 -6 5 4 9 15 7 25 -2 12 -10 16 -30 15
-20 -1 -25 2 -21 12 7 18 -6 19 -22 3 -15 -15 -42 -19 -42 -6 0 6 7 8 15 4 8
-3 15 -2 15 2 0 7 -107 57 -122 57 -12 0 -11 19 1 23 6 2 11 -1 11 -7 0 -6 9
-11 19 -11 11 0 27 -7 35 -16 15 -14 16 -14 16 0 0 11 9 16 28 16 21 0 24 2
12 10 -28 18 -1 10 36 -11 20 -11 40 -16 43 -11 10 14 38 21 47 12 5 -5 15 -5
24 0 13 8 12 10 -2 10 -10 0 -18 5 -18 10 0 6 5 10 11 10 5 0 7 5 3 11 -5 8
-8 8 -14 0 -5 -9 -10 -8 -20 3 -7 9 -16 14 -20 11 -4 -3 -14 3 -21 13 -12 15
-12 16 2 5 20 -16 33 -5 16 15 -8 11 -8 14 0 9 6 -4 13 -1 16 5 3 10 9 10 24
2 15 -10 24 -8 44 6 24 19 22 39 -3 24 -27 -17 -47 -14 -45 6 1 11 8 20 16 20
8 0 12 3 8 6 -3 4 -14 3 -24 -1 -10 -5 -22 -9 -28 -9 -5 -1 -11 -5 -11 -11 -1
-5 3 -9 9 -7 6 2 5 -4 -3 -12 -7 -9 -19 -16 -27 -16 -13 0 -13 3 -3 15 10 12
10 15 -4 15 -9 0 -16 -3 -16 -7 0 -5 -12 -13 -26 -20 -21 -10 -29 -10 -40 2
-20 20 -17 27 5 13 15 -9 23 -9 35 1 9 8 16 18 16 23 0 5 -7 2 -16 -7 -9 -9
-19 -13 -23 -10 -3 4 3 13 13 21 23 16 36 18 36 4 0 -5 7 -10 15 -10 8 0 15 5
15 10 0 6 6 10 13 10 8 0 22 9 32 20 15 17 16 20 3 15 -9 -4 -19 -1 -24 6 -5
8 -3 10 6 4 10 -6 12 -1 7 24 -4 20 -3 30 3 26 6 -3 10 -14 10 -24z m1345
-123 c80 -20 198 -61 224 -77 11 -7 9 -10 -7 -15 -27 -9 -90 -79 -98 -110 -6
-23 -7 -24 -39 -10 -19 7 -73 25 -122 39 -87 25 -89 26 -160 10 -60 -13 -81
-24 -121 -60 -46 -42 -50 -43 -71 -29 -12 9 -18 20 -15 26 4 7 2 8 -4 4 -15
-9 -32 26 -32 65 0 70 61 122 194 165 80 27 120 25 251 -8z m316 -155 c25 -27
72 -82 104 -123 113 -143 243 -264 347 -324 l48 -28 -30 -36 c-21 -26 -30 -47
-30 -73 l0 -36 -83 41 c-99 49 -205 125 -267 193 -117 126 -252 279 -263 299
-19 34 65 134 113 134 9 0 36 -21 61 -47z m-2676 -33 c26 -47 43 -63 125 -115
102 -64 221 -176 327 -306 l63 -77 -34 -6 c-18 -3 -52 -23 -75 -42 -23 -20
-46 -33 -50 -28 -84 101 -176 193 -256 257 -55 43 -124 102 -153 129 -50 47
-55 56 -63 112 -12 85 -12 89 12 115 35 38 68 25 104 -39z m205 35 c25 -8 85
-39 133 -68 l87 -53 -35 -17 c-19 -9 -52 -32 -74 -52 l-39 -35 -58 38 c-33 21
-85 55 -116 75 -50 32 -88 77 -88 106 0 31 103 35 190 6z m-370 1 c24 -5 25
-9 27 -80 1 -41 6 -83 12 -94 7 -13 5 -37 -6 -80 -14 -57 -17 -61 -29 -44 -19
28 -67 45 -115 40 l-41 -4 6 59 c9 90 77 222 109 212 6 -2 23 -6 37 -9z m2068
-73 c7 -12 24 -31 39 -42 l26 -22 -33 -34 c-19 -19 -38 -35 -43 -35 -15 0
-197 -74 -249 -102 -16 -7 -18 -4 -18 25 0 30 15 48 128 160 123 122 127 126
133 99 3 -15 11 -37 17 -49z m-1427 -9 c65 -15 75 -21 137 -82 132 -130 215
-234 304 -377 130 -210 122 -191 158 -405 69 -420 73 -436 158 -648 44 -108
82 -213 86 -232 6 -34 5 -35 -25 -36 -18 -1 -41 -12 -59 -29 -27 -26 -30 -27
-35 -9 -4 10 -25 57 -47 104 -80 165 -138 311 -138 343 0 17 -14 86 -31 152
-17 66 -34 136 -39 156 -5 19 -20 113 -34 209 -28 194 -48 248 -168 445 -165
270 -208 324 -308 389 -62 41 -58 43 41 20z m-833 -14 c33 0 42 -14 32 -49 -5
-18 -12 -67 -15 -109 -4 -43 -10 -126 -16 -187 -5 -60 -9 -114 -9 -118 0 -5
-17 5 -37 22 -24 20 -58 35 -94 43 -53 11 -57 13 -49 34 5 12 14 68 20 125 7
57 18 115 25 129 24 46 97 121 112 116 8 -3 22 -6 31 -6z m2668 -33 c71 -36
192 -137 332 -278 70 -70 76 -81 128 -208 30 -74 53 -135 52 -137 -2 -1 -59
77 -129 174 -106 150 -137 186 -200 234 -157 122 -256 154 -456 146 l-103 -4
52 53 c28 29 61 54 72 57 12 2 57 3 101 2 69 -2 90 -7 151 -39z m-1352 -73
c136 -63 288 -124 310 -124 12 0 11 -8 -6 -47 -15 -35 -19 -58 -15 -94 l6 -47
-50 -7 c-43 -6 -57 -3 -97 19 -26 14 -90 46 -142 71 -52 25 -106 51 -119 58
-13 7 -42 33 -63 59 -34 39 -39 51 -33 77 7 33 55 91 76 91 7 0 67 -25 133
-56z m-445 11 c77 -88 293 -441 331 -541 9 -23 8 -25 -10 -19 -30 9 -83 -11
-115 -45 l-28 -30 -19 31 c-10 17 -30 60 -44 97 -30 81 -49 112 -141 230 -41
51 -70 98 -67 104 4 6 3 8 -4 5 -5 -4 -35 19 -66 50 l-55 58 27 29 c41 43 83
66 123 66 30 0 43 -7 68 -35z m-1034 2 c-8 -13 -20 -62 -26 -108 -10 -79 -12
-85 -47 -114 -120 -96 -139 -123 -216 -296 -85 -190 -90 -207 -107 -344 -6
-55 -14 -104 -16 -108 -3 -5 -14 0 -25 10 -14 12 -36 18 -69 18 l-48 0 6 40
c13 88 104 429 121 460 20 32 108 148 240 312 41 52 79 90 85 86 5 -3 7 -1 4
4 -11 18 36 44 111 62 1 1 -4 -10 -13 -22z m1877 -66 l78 -40 -36 -7 c-66 -12
-147 1 -246 41 -54 21 -98 43 -98 48 0 6 42 8 113 4 106 -5 116 -8 189 -46z
m-1409 3 c36 -34 37 -37 37 -108 0 -71 -2 -78 -75 -227 l-76 -154 6 105 c9
165 48 420 63 420 4 0 24 -16 45 -36z m2256 27 c61 -12 106 -58 106 -109 0
-52 -29 -96 -54 -83 -10 6 -77 16 -148 22 -145 14 -206 6 -387 -46 -49 -14
-91 -24 -93 -22 -2 3 -5 31 -6 63 l-2 58 124 54 c77 33 148 57 185 62 83 10
222 11 275 1z m166 -57 c145 -88 179 -123 355 -374 120 -171 142 -194 222
-233 40 -20 110 -46 155 -58 71 -19 82 -25 86 -47 4 -19 -3 -33 -25 -55 -27
-27 -33 -29 -81 -24 -28 4 -101 23 -161 44 -103 35 -115 42 -171 98 -33 33
-86 96 -117 140 -50 71 -169 196 -297 312 l-43 39 21 42 c26 51 26 78 1 120
-11 17 -16 32 -12 32 4 0 34 -16 67 -36z m-2577 -8 c52 -27 55 -46 38 -218 -9
-85 -21 -312 -26 -504 -5 -192 -12 -384 -16 -426 l-7 -77 -30 15 c-21 11 -43
14 -74 9 l-45 -6 7 123 c3 68 10 294 15 503 14 521 17 575 44 585 32 13 64 12
94 -4z m346 -168 l55 -88 -54 0 c-37 0 -65 -7 -87 -20 -18 -11 -41 -20 -51
-20 -10 0 -31 -7 -47 -15 -17 -9 -30 -13 -30 -10 0 3 19 42 42 88 38 74 42 89
41 149 l-1 68 39 -32 c21 -17 64 -71 93 -120z m1288 75 c3 -55 2 -60 -33 -95
-29 -30 -44 -38 -72 -38 -23 0 -37 6 -41 16 -13 33 -5 98 16 135 21 38 24 39
74 39 l52 0 4 -57z m-1989 -55 c-3 -13 -37 -126 -74 -253 -38 -126 -69 -233
-69 -237 0 -3 -4 -18 -10 -32 l-9 -26 -37 25 c-24 16 -51 25 -75 25 -22 0 -39
4 -39 10 0 12 112 276 145 341 16 30 51 71 95 108 39 34 72 61 74 61 2 0 2
-10 -1 -22z m824 -96 c120 -133 169 -199 179 -236 7 -29 4 -27 -67 31 -62 51
-87 81 -151 186 -111 177 -106 179 39 19z m1973 100 c39 -15 194 -156 215
-195 18 -35 18 -37 1 -56 -22 -25 -77 -51 -106 -51 -13 0 -51 27 -93 65 -78
72 -138 104 -235 130 -60 15 -70 15 -180 -4 -64 -11 -131 -23 -148 -26 -29 -6
-31 -5 -43 35 -7 23 -11 43 -9 45 4 4 128 39 188 54 25 5 54 13 65 15 34 9
319 -1 345 -12z m-790 -77 c0 -17 -15 -33 -57 -62 -41 -28 -61 -50 -69 -73 -7
-21 -23 -39 -45 -51 -48 -26 -65 -23 -91 11 -12 17 -46 47 -75 67 -29 20 -53
40 -53 43 0 4 7 14 17 21 12 11 45 13 138 11 130 -4 159 3 199 47 22 24 36 19
36 -14z m1837 -29 c71 -42 94 -66 128 -135 48 -95 43 -171 -11 -171 -18 0 -44
19 -88 63 -34 34 -88 80 -119 102 -57 40 -57 40 -53 83 4 47 37 92 67 92 10 0
44 -15 76 -34z m-3740 3 c39 -12 93 -74 93 -106 0 -23 -69 -224 -159 -460 -27
-72 -57 -170 -67 -217 l-17 -85 -29 21 c-36 25 -107 35 -137 19 -15 -8 -21 -8
-21 -1 0 28 37 173 96 375 115 400 134 459 145 466 13 8 47 4 96 -12z m1568
-111 c17 -12 52 -47 78 -79 l49 -59 -28 0 c-19 0 -41 -14 -75 -48 l-48 -48 -7
63 c-5 54 -16 80 -75 179 l-68 115 72 -52 c40 -28 86 -60 102 -71z m-592 83
c30 -12 70 -81 97 -169 17 -56 90 -388 90 -411 0 -5 -22 -6 -48 -3 -33 3 -59
-1 -80 -12 l-32 -17 0 44 c0 43 -56 285 -84 365 -9 24 -30 63 -47 88 l-32 44
24 26 c18 20 65 49 86 54 1 0 13 -4 26 -9z m960 -147 c-23 -31 -27 -47 -32
-137 -6 -93 -9 -105 -36 -141 l-29 -39 -33 39 c-19 21 -40 62 -49 90 -14 49
-14 57 5 121 11 37 25 86 31 109 8 34 20 48 62 76 l52 34 28 -59 28 -59 -27
-34z m570 129 l32 -17 -30 -6 c-45 -10 -71 -27 -101 -66 -27 -34 -27 -35 -48
-16 -31 29 -54 39 -121 51 -98 19 -105 21 -105 30 0 4 51 18 113 29 125 23
209 22 260 -5z m-1851 9 c9 -4 36 -36 60 -72 29 -43 70 -85 123 -126 l79 -61
21 -84 c38 -151 38 -146 3 -147 -41 -1 -161 -60 -233 -115 -96 -73 -129 -114
-165 -207 -54 -136 -110 -172 -179 -114 l-31 26 0 -34 c0 -65 19 -107 60 -134
35 -23 43 -25 71 -15 18 6 33 11 34 11 1 0 -2 -24 -6 -52 -10 -58 4 -155 27
-200 18 -35 18 -35 -13 -41 -16 -3 -45 -17 -65 -31 l-37 -25 -30 53 c-16 29
-53 74 -81 99 -48 41 -50 46 -31 52 43 13 66 107 40 157 -11 21 -12 20 -30
-13 l-18 -34 0 30 c-1 17 4 82 10 145 5 63 14 248 18 410 l8 295 38 79 c34 70
43 80 82 97 25 10 52 19 61 19 9 0 31 9 47 19 30 20 104 26 137 13z m-1193
-46 c9 -11 10 -24 2 -53 -6 -21 -15 -56 -21 -78 -8 -32 -28 -58 -109 -132
l-99 -93 85 183 c46 100 87 188 90 194 6 14 32 4 52 -21z m-383 -2 c-5 -13 -1
-15 18 -10 15 4 28 1 32 -6 5 -8 2 -9 -9 -5 -24 9 -30 -9 -10 -33 22 -26 36
-26 28 0 -4 12 -2 20 5 20 6 0 8 -4 5 -10 -3 -5 0 -10 7 -10 7 0 19 -4 27 -9
12 -8 12 -12 2 -24 -10 -12 -8 -15 11 -16 44 -1 57 -4 62 -17 3 -8 0 -11 -10
-7 -7 3 -14 0 -14 -6 0 -6 8 -11 18 -11 16 -1 16 -1 -1 -11 -13 -8 -22 -7 -31
1 -8 6 -20 9 -27 8 -7 -2 -13 3 -14 11 0 8 -7 16 -15 19 -8 3 -12 1 -7 -3 4
-5 0 -17 -9 -27 -16 -17 -15 -18 24 -14 49 5 52 -1 15 -28 -14 -11 -23 -15
-20 -9 8 12 -20 26 -34 17 -5 -3 -7 -10 -3 -15 3 -5 10 -7 15 -4 16 11 9 -23
-13 -61 -15 -25 -21 -50 -19 -76 2 -29 -2 -40 -15 -45 -10 -4 -19 -2 -22 5 -2
8 -11 8 -30 1 -15 -6 -43 -12 -62 -15 -19 -2 -43 -7 -52 -10 -11 -3 -19 2 -23
16 -4 13 -15 20 -33 20 -19 0 -23 3 -13 9 14 9 68 8 78 -3 3 -3 -1 -6 -10 -6
-10 0 -17 -4 -17 -10 0 -13 17 -13 25 0 4 6 11 8 16 5 5 -3 6 1 3 9 -3 9 -1
16 6 16 6 0 8 5 5 10 -4 6 -11 8 -16 5 -5 -4 -9 1 -9 9 0 10 -10 16 -25 17
-57 3 -64 11 -30 33 15 10 25 26 25 41 0 19 4 23 18 19 15 -5 15 -4 -2 10 -19
15 -18 16 5 25 28 10 40 4 19 -10 -11 -8 -8 -9 13 -6 15 2 30 0 33 -4 5 -9 -9
-13 -32 -10 -21 2 -38 -27 -25 -43 9 -11 6 -15 -14 -20 -14 -4 -25 -11 -25
-17 0 -8 4 -8 13 -1 9 8 19 5 37 -8 26 -20 55 -27 45 -10 -3 5 4 19 15 30 20
20 21 23 5 40 -16 17 -15 19 6 22 17 2 25 12 30 36 5 25 4 31 -4 23 -15 -15
-24 -14 -31 6 -4 9 -1 20 6 25 10 6 10 8 -2 8 -8 0 -22 -5 -30 -10 -10 -6 -11
-10 -2 -10 6 0 12 -5 12 -11 0 -5 -5 -7 -12 -3 -6 4 -8 3 -4 -4 10 -17 -8 -21
-29 -6 -19 14 -19 14 1 14 14 0 16 2 6 9 -10 6 -8 10 9 14 19 5 21 9 11 19
-16 16 -15 28 3 28 9 0 12 -6 8 -17 -5 -14 -1 -15 35 -10 23 3 42 1 42 -4 0
-5 -4 -9 -10 -9 -5 0 -10 -4 -10 -10 0 -5 7 -10 15 -10 8 0 14 3 14 8 -4 24 3
42 16 42 18 0 20 -26 3 -33 -7 -3 -8 -6 -3 -6 6 0 26 13 45 29 19 16 29 30 23
30 -7 0 -13 -5 -13 -11 0 -12 -57 -3 -76 12 -6 5 -14 6 -17 2 -4 -3 -7 -2 -7
3 0 6 5 15 12 22 6 6 8 15 4 19 -4 4 -11 1 -16 -7 -6 -8 -10 -11 -10 -6 0 9
30 44 39 45 2 1 0 -6 -3 -15z m3602 -58 c77 -74 79 -77 150 -241 l73 -165 -17
-161 c-13 -132 -14 -168 -4 -205 13 -44 35 -58 46 -29 4 8 18 15 34 15 20 0
29 -6 34 -22 28 -105 -45 -166 -147 -123 -74 31 -113 130 -103 261 19 256 19
243 -9 379 -20 98 -39 156 -76 234 -27 57 -57 110 -66 117 -11 8 -13 13 -5 14
7 0 47 -33 90 -74z m-113 44 c20 -8 37 -32 71 -105 83 -178 97 -276 64 -458
l-23 -125 -35 15 c-32 13 -55 13 -94 -2 -17 -7 -17 -13 8 176 21 160 13 187
-86 313 -38 49 -70 93 -70 96 0 15 44 63 74 81 35 21 53 23 91 9z m443 -223
c74 -188 85 -224 76 -238 -4 -7 -3 -9 3 -6 6 4 18 -2 27 -12 20 -22 13 -42
-26 -78 -26 -25 -76 -38 -95 -25 -10 6 -203 431 -203 445 0 2 17 9 38 15 20 6
53 23 71 36 19 14 37 23 42 21 4 -3 34 -74 67 -158z m-2924 -184 l-6 -298 -60
-190 c-33 -104 -63 -198 -65 -207 -3 -9 -33 -31 -67 -47 -33 -17 -72 -38 -85
-48 -23 -17 -23 -17 -18 2 3 11 31 146 63 300 31 154 61 294 68 312 90 251
172 473 174 473 2 0 0 -134 -4 -297z m1226 252 c7 -9 24 -89 37 -178 12 -89
34 -200 48 -247 36 -123 55 -234 55 -319 0 -64 -2 -72 -15 -61 -15 12 -75 10
-107 -4 -14 -6 -17 2 -22 61 -20 228 -71 505 -113 611 -29 75 -25 102 19 131
39 25 81 27 98 6z m-2070 -109 c-38 -79 -59 -110 -80 -121 -39 -20 -40 -20
-29 17 5 18 9 47 9 63 0 48 47 111 99 134 25 11 47 18 49 16 2 -2 -20 -51 -48
-109z m2456 86 c6 -4 21 -44 33 -89 38 -141 109 -370 130 -415 22 -49 95 -233
105 -263 5 -19 2 -20 -33 -17 -25 3 -52 -3 -80 -17 l-41 -22 -10 25 c-18 48
-118 373 -150 486 -18 64 -46 136 -62 163 l-30 47 26 41 c15 22 42 47 59 54
38 17 39 17 53 7z m-2301 -130 c-14 -55 -25 -110 -25 -122 0 -12 -21 -43 -47
-71 -43 -44 -55 -51 -107 -59 -78 -12 -101 -5 -121 36 -25 53 -12 77 57 110
38 18 99 63 162 121 56 50 102 90 104 88 2 -1 -9 -48 -23 -103z m281 -28 c18
-9 36 -24 39 -34 3 -10 -6 -56 -19 -103 -52 -178 -65 -279 -68 -513 -3 -319 0
-692 7 -828 l6 -118 -23 16 c-12 9 -37 16 -55 16 -32 0 -33 1 -33 44 0 25 -10
132 -21 238 -37 334 -24 737 36 1084 14 80 25 158 25 173 0 15 3 31 7 34 12
12 64 7 99 -9z m1942 -128 c17 -56 36 -121 42 -146 6 -25 43 -141 81 -257 l70
-213 10 -166 c15 -260 63 -458 114 -477 21 -9 19 -44 -4 -57 -18 -9 -61 -14
-61 -7 0 2 -7 50 -15 107 -9 57 -25 186 -35 287 -23 219 -25 226 -102 418 -90
224 -96 244 -129 440 -16 99 -32 189 -35 200 -5 17 -2 17 14 -4 11 -14 34 -70
50 -125z m1778 44 c7 0 29 -25 48 -55 22 -34 49 -61 73 -74 21 -10 56 -35 78
-54 37 -32 39 -36 27 -61 -11 -24 -15 -26 -49 -20 -47 8 -79 25 -171 89 -60
42 -78 61 -106 115 -19 36 -39 77 -45 92 l-9 25 70 -28 c38 -16 76 -29 84 -29z
m-4602 10 c59 -16 110 -31 113 -34 2 -2 1 -25 -3 -51 l-7 -48 -96 7 c-52 4
-99 10 -103 12 -4 3 -8 24 -8 47 0 25 -9 56 -21 76 -19 31 -19 33 -2 26 10 -3
67 -20 127 -35z m-154 12 c15 -12 24 -33 27 -64 l5 -46 -66 -32 c-118 -56
-236 -187 -236 -262 l0 -25 -47 24 c-33 16 -60 23 -85 21 -44 -4 -46 2 -22 83
34 115 89 196 158 231 71 37 200 88 222 88 12 0 32 -8 44 -18z m2596 -169 c13
-65 26 -143 30 -174 l6 -57 -53 10 c-30 5 -55 11 -56 12 -1 0 5 46 14 101 12
83 13 113 3 174 -6 41 -14 81 -17 90 -4 9 6 5 22 -11 24 -22 32 -45 51 -145z
m-1881 -91 c-3 -7 -10 -10 -16 -6 -7 4 -9 3 -6 -3 3 -5 -9 -24 -27 -42 l-34
-33 -61 73 -62 74 66 10 c53 9 72 17 98 43 l32 33 7 -68 c4 -38 5 -74 3 -81z
m137 118 c24 -18 25 -23 16 -67 -8 -45 -47 -462 -49 -528 0 -24 -6 -15 -25 40
-28 79 -40 176 -49 413 l-6 162 44 0 c29 0 53 -7 69 -20z m3707 -17 c97 -79
128 -114 165 -189 36 -72 37 -77 20 -95 -31 -34 -59 -23 -152 57 -48 42 -121
98 -162 125 -73 48 -74 49 -41 49 38 0 96 38 106 70 3 11 9 20 12 20 3 0 27
-17 52 -37z m-2051 10 l21 -18 -22 -167 c-19 -153 -20 -179 -9 -300 7 -73 21
-173 32 -222 11 -50 20 -91 20 -92 0 -1 -18 -4 -39 -8 -26 -4 -47 -15 -60 -32
l-21 -26 -11 28 c-63 166 -75 280 -63 589 l9 230 35 17 c45 23 82 23 108 1z
m-2324 -12 c70 -6 71 -6 74 -36 3 -30 2 -30 -62 -43 -70 -13 -100 -7 -181 37
-22 11 -48 21 -58 21 -10 0 -15 4 -12 10 11 18 69 29 119 23 27 -3 81 -8 120
-12z m395 -154 c25 -26 70 -61 99 -78 l52 -29 0 -73 c0 -39 4 -89 9 -110 5
-21 6 -37 3 -35 -93 43 -172 125 -239 245 -35 63 -63 157 -63 210 l0 34 46
-58 c26 -32 67 -80 93 -106z m2791 80 c30 -67 47 -155 69 -357 12 -102 24
-202 27 -222 6 -32 4 -38 -11 -38 -9 0 -32 -15 -50 -33 l-33 -33 -6 64 c-4 36
-4 101 0 146 6 77 4 89 -30 188 -20 59 -52 143 -71 188 -19 45 -32 86 -29 92
11 18 69 48 92 48 18 0 28 -10 42 -43z m-3339 -2 c41 -19 69 -34 62 -35 -7 0
-41 -26 -75 -59 l-63 -59 -49 8 c-28 4 -71 6 -98 4 -59 -5 -61 6 -13 69 48 62
104 107 136 107 14 0 60 -16 100 -35z m239 -22 c0 -4 -33 -39 -74 -78 -66 -63
-76 -78 -95 -139 -12 -37 -21 -76 -21 -85 0 -9 -15 -46 -33 -82 -31 -63 -33
-65 -48 -46 -10 13 -31 21 -67 25 -47 4 -51 7 -47 26 3 11 11 49 19 84 8 34
26 82 40 106 24 41 104 121 154 154 39 25 172 53 172 35z m-721 -50 c-7 -21
-16 -67 -20 -103 -4 -36 -17 -112 -28 -170 -11 -58 -23 -120 -26 -137 l-6 -33
-29 22 c-17 12 -45 22 -65 22 -31 1 -35 4 -31 21 3 11 12 78 20 148 15 128 32
184 54 180 7 -2 11 2 10 7 -3 10 123 90 130 84 2 -1 -2 -20 -9 -41z m4460 2
c24 -12 29 -22 35 -67 6 -47 38 -196 52 -239 6 -21 -21 -49 -47 -49 -32 0 -94
66 -125 132 -20 45 -29 84 -32 134 -4 66 -2 73 19 88 29 20 61 20 98 1z
m-3725 -27 c3 -18 16 -51 29 -73 l22 -39 -22 -46 c-38 -80 -74 -222 -80 -313
-5 -68 -8 -85 -18 -77 -16 13 -62 17 -97 7 l-28 -7 0 112 c0 114 18 257 40
313 10 28 126 155 141 155 4 0 10 -15 13 -32z m2025 6 c52 -11 35 -19 -31 -15
-88 4 -158 -14 -227 -60 -105 -70 -163 -181 -163 -309 0 -146 76 -266 210
-332 61 -30 75 -33 157 -32 61 0 102 5 128 17 20 9 37 12 37 6 0 -27 -146 -52
-228 -39 -76 13 -149 50 -207 107 -134 132 -153 342 -45 498 78 114 242 184
369 159z m-1149 -44 c22 -11 40 -22 40 -25 0 -2 -20 -104 -45 -226 -28 -139
-52 -230 -64 -247 -35 -51 -61 -111 -70 -164 -6 -35 -8 70 -6 301 2 330 3 355
21 368 26 19 79 16 124 -7z m1165 2 c12 -8 14 -443 2 -435 -4 3 -14 -1 -22 -7
-8 -6 -19 -9 -25 -5 -5 3 -10 1 -10 -4 0 -6 -9 -11 -20 -11 -11 0 -20 -4 -20
-9 0 -5 -15 -15 -34 -21 -19 -6 -40 -17 -46 -25 -7 -8 -16 -12 -21 -9 -5 3
-26 0 -45 -6 -28 -9 -33 -15 -23 -22 10 -7 6 -8 -13 -4 -15 3 -30 1 -33 -4 -4
-6 -1 -9 5 -8 7 2 14 -5 15 -14 5 -29 -12 -20 -50 26 -53 65 -75 131 -75 224
0 64 5 87 29 139 61 128 175 201 316 202 33 0 65 -3 70 -7z m-2631 -64 c32
-21 34 -25 40 -102 4 -45 12 -84 19 -88 9 -6 9 -8 -1 -8 -11 0 -12 -14 -7 -62
4 -43 0 -99 -14 -178 -10 -63 -22 -151 -26 -195 -3 -44 -8 -94 -11 -112 -5
-31 -5 -31 -34 -16 -31 15 -83 11 -108 -10 -7 -5 -15 -7 -18 -4 -4 3 6 95 21
205 25 190 26 207 16 381 -6 101 -13 187 -16 191 -10 16 30 30 68 25 21 -3 53
-15 71 -27z m223 26 l23 -6 -20 -28 c-21 -30 -40 -95 -60 -208 -7 -39 -15 -70
-17 -68 -9 9 -32 181 -27 205 20 99 26 111 53 111 14 0 36 -3 48 -6z m431
-126 c-11 -73 -3 -178 18 -249 8 -28 53 -124 100 -215 46 -91 84 -167 84 -169
0 -2 -13 2 -28 7 -23 9 -36 8 -62 -5 -18 -10 -34 -16 -35 -15 -66 111 -129
225 -147 263 -30 67 -28 145 6 265 52 182 81 234 64 118z m1207 50 c34 -15 39
-41 31 -151 -11 -141 -33 -262 -91 -497 -55 -220 -70 -292 -80 -392 -5 -49 -9
-57 -31 -62 -31 -8 -85 15 -111 48 -23 29 -21 49 17 173 24 79 80 363 120 608
47 292 41 269 75 276 17 4 33 7 37 8 4 0 19 -4 33 -11z m1325 -138 c18 -41 51
-111 72 -155 47 -95 52 -119 78 -367 l20 -190 -52 -97 c-232 -431 -526 -720
-737 -723 -59 -1 -61 0 -163 73 -125 89 -301 224 -383 293 -118 99 -225 198
-225 208 0 5 5 6 11 2 9 -5 11 6 7 38 l-5 45 55 23 c36 15 76 44 113 81 32 32
59 54 61 49 4 -12 78 -43 78 -33 0 5 -14 16 -31 26 -35 20 -36 31 -4 147 12
46 16 82 11 127 l-6 62 42 25 c69 40 95 43 119 13 21 -27 134 -117 147 -117 4
0 20 -10 35 -23 26 -21 28 -25 19 -65 -6 -23 -6 -42 -2 -42 12 0 33 68 27 90
-4 18 0 19 57 13 55 -5 137 8 196 31 11 5 21 -9 38 -53 47 -120 113 -192 192
-206 29 -5 39 -2 59 19 34 36 25 91 -27 164 -57 82 -74 119 -61 128 7 4 20 -4
31 -17 l18 -24 -2 29 c-4 41 18 44 26 4 3 -18 22 -77 42 -130 65 -175 154
-223 194 -104 10 30 7 48 -24 146 -20 62 -42 144 -50 184 -18 84 -33 426 -19
411 5 -5 24 -44 43 -85z m-82 28 c8 -8 12 -46 12 -102 0 -145 16 -252 55 -381
47 -152 52 -188 31 -220 -21 -32 -36 -31 -68 3 -75 80 -137 315 -154 581 -7
110 -7 111 17 120 34 14 93 13 107 -1z m543 -193 c9 -259 24 -373 60 -441 43
-80 37 -94 -36 -94 -51 0 -89 38 -108 107 -28 100 -48 235 -48 328 0 50 -7
128 -15 174 -8 46 -13 85 -12 86 47 32 57 35 103 33 l50 -3 6 -190z m-3281
-150 c-6 -60 -17 -135 -24 -165 l-12 -55 -13 104 c-17 128 -11 195 26 314 l28
92 3 -90 c2 -49 -2 -139 -8 -200z m-72 222 c22 -24 22 -24 5 -88 -22 -85 -20
-168 11 -381 14 -97 26 -202 26 -233 0 -112 -54 -306 -81 -289 -8 5 -9 3 -4
-5 9 -15 -51 -81 -74 -81 -22 0 -61 41 -61 64 0 12 7 30 15 40 8 10 29 62 47
115 30 87 33 106 32 211 0 89 -7 149 -32 265 -33 157 -34 177 -6 345 9 58 11
60 57 60 33 0 49 -6 65 -23z m-556 -46 l32 -28 -12 -64 c-6 -35 -20 -75 -30
-88 -24 -32 -89 -56 -110 -39 -35 30 -32 65 23 236 8 23 63 13 97 -17z m1952
-43 c-3 -18 -26 -134 -50 -256 -24 -123 -44 -227 -44 -230 0 -4 -5 0 -10 8 -8
12 -10 12 -10 1 0 -10 -3 -11 -14 -2 -11 9 -17 8 -28 -6 -7 -10 -20 -18 -28
-18 -24 2 -32 -6 -20 -20 7 -8 7 -16 2 -19 -13 -8 -58 52 -84 112 -16 35 -22
68 -22 127 0 87 18 142 70 211 49 63 152 121 221 123 20 1 22 -3 17 -31z m249
-68 c42 -46 72 -101 82 -150 3 -19 9 -44 12 -54 4 -15 2 -18 -12 -12 -19 7
-95 -13 -95 -25 0 -5 -7 -6 -15 -3 -8 4 -15 2 -15 -4 0 -5 -11 -13 -25 -16
-13 -3 -32 -19 -40 -34 l-16 -27 4 25 c15 86 73 340 78 340 4 0 23 -18 42 -40z
m1526 -122 c7 -73 24 -207 37 -298 l24 -165 -21 -17 c-13 -11 -38 -18 -64 -18
l-43 0 -11 83 c-6 45 -18 150 -26 232 -9 83 -18 176 -22 208 -5 52 -3 60 18
83 30 32 59 44 80 33 12 -6 19 -39 28 -141z m376 51 c90 -128 91 -129 70 -172
-14 -30 -23 -37 -46 -37 -34 0 -99 55 -155 131 -34 46 -35 49 -20 78 18 35 62
71 85 71 9 -1 39 -33 66 -71z m-3324 38 c11 -8 22 -48 34 -117 13 -77 38 -159
93 -305 62 -167 75 -213 80 -276 4 -67 1 -84 -21 -133 -26 -57 -41 -65 -76
-46 -15 7 -20 27 -26 97 -8 100 -41 213 -120 408 -33 82 -57 158 -64 205 -14
101 -16 153 -7 168 9 16 86 15 107 -1z m2368 -121 c12 -29 44 -86 71 -127 60
-90 71 -132 42 -161 -18 -18 -24 -19 -57 -8 -54 18 -103 74 -145 164 -56 120
-56 121 -21 156 19 20 40 30 58 30 26 0 32 -6 52 -54z m-1554 -177 c3 -26 21
-72 40 -104 35 -57 35 -58 35 -182 0 -141 15 -215 63 -313 26 -54 38 -67 66
-76 27 -9 38 -20 48 -50 29 -82 9 -257 -34 -290 -23 -17 -63 -18 -63 -1 -4
129 -22 216 -80 387 -69 204 -75 245 -84 523 -6 169 -4 197 9 106z m-1145 -82
l13 -88 -33 -34 c-24 -25 -43 -35 -65 -35 -71 0 -76 65 -11 144 24 30 50 71
57 90 17 46 23 34 39 -77z m661 86 l29 -17 -1 -101 c0 -119 -14 -169 -47 -173
-42 -6 -62 24 -62 92 0 34 -4 87 -10 119 -10 64 -6 84 18 90 32 9 44 7 73 -10z
m-866 -33 c16 -18 17 -26 6 -74 -9 -42 -9 -73 0 -140 10 -75 10 -88 -4 -110
-25 -37 -55 -43 -82 -15 -34 37 -54 100 -66 211 l-11 102 26 23 c36 30 105 32
131 3z m1489 -187 c17 -16 41 -35 53 -43 20 -14 21 -20 13 -69 -9 -54 2 -137
35 -260 16 -60 13 -71 -15 -71 -31 0 -57 37 -91 129 -27 74 -32 104 -36 214
-3 70 -2 127 2 127 4 0 22 -12 39 -27z m1865 -117 c2 -77 44 -199 93 -268 17
-24 -4 -47 -38 -40 -56 10 -114 95 -135 198 l-12 60 39 66 c42 72 51 70 53
-16z m215 -40 c10 -47 16 -92 13 -100 -10 -26 -41 -36 -68 -23 -26 13 -73 100
-84 155 l-7 32 44 0 c24 0 50 5 58 10 8 5 17 10 20 10 3 0 14 -38 24 -84z
m-3404 0 c-6 -20 -15 -36 -18 -36 -4 0 -8 -11 -8 -25 -2 -32 -36 -85 -42 -66
-3 8 3 18 12 23 9 5 16 14 16 20 0 6 -6 6 -15 -2 -13 -11 -18 -10 -29 6 -8 10
-12 24 -9 31 7 18 -12 16 -27 -2 -10 -12 -10 -15 2 -15 8 0 20 -12 27 -27 8
-16 17 -36 22 -45 14 -27 11 -33 -9 -15 -17 15 -20 15 -43 0 -13 -9 -18 -10
-11 -3 6 8 12 20 12 28 0 8 -5 10 -12 6 -10 -5 -10 -3 0 7 11 12 14 12 22 -1
8 -13 10 -12 10 3 0 11 -10 27 -22 37 -22 17 -24 17 -51 -2 -23 -16 -30 -18
-43 -7 -8 7 -13 18 -10 25 3 7 0 15 -7 17 -7 2 0 4 16 4 15 0 27 -3 27 -8 0
-5 -3 -8 -8 -6 -8 2 -12 -6 -12 -25 0 -10 2 -10 9 0 4 8 12 13 17 13 5 0 9 9
9 22 0 14 8 23 20 25 11 2 24 8 29 13 6 5 14 9 20 9 5 0 1 -6 -10 -14 -10 -8
-16 -18 -12 -21 11 -12 39 22 32 39 -7 19 -16 20 -32 4 -7 -7 -12 -9 -12 -6 0
4 7 14 15 22 13 12 20 13 34 4 15 -9 24 -7 47 10 24 17 31 19 43 7 11 -10 11
-20 1 -49z m1135 32 c32 -29 62 -140 46 -175 -14 -31 -82 -78 -134 -92 -38
-11 -49 -10 -76 3 -56 30 -55 101 4 129 44 21 75 70 75 120 0 34 2 37 29 37
17 0 42 -10 56 -22z m351 -58 c19 -7 45 -9 58 -6 22 5 24 1 45 -102 11 -59 21
-133 21 -165 0 -54 -3 -62 -35 -94 -34 -34 -37 -35 -54 -19 -38 34 -131 379
-116 427 6 19 8 18 26 -5 11 -13 35 -30 55 -36z m331 -168 c84 -75 99 -126 90
-316 -6 -139 -18 -187 -54 -219 -17 -15 -24 -16 -47 -6 -15 7 -29 24 -33 37
-3 14 -3 96 0 184 l5 158 -47 140 -47 139 35 -31 c20 -17 64 -56 98 -86z
m1174 -228 c10 -13 -146 -214 -167 -214 -7 0 -12 -6 -10 -12 1 -7 1 -10 -1 -5
-10 17 -24 5 -18 -15 6 -19 5 -21 -6 -11 -9 9 -16 10 -26 2 -18 -15 -16 -26 7
-51 11 -12 26 -45 35 -74 8 -29 24 -73 35 -98 19 -45 19 -46 0 -56 -33 -17
-23 -41 53 -131 40 -48 77 -101 84 -118 l11 -31 -43 0 c-23 0 -62 -7 -86 -16
-57 -20 -189 -24 -189 -6 0 31 45 140 84 205 24 39 42 77 39 83 -2 6 -15 16
-28 22 -18 8 -26 24 -35 66 -6 31 -9 60 -6 65 4 5 1 22 -5 38 -7 15 -13 35
-13 43 -1 9 -9 14 -23 13 -26 -3 -31 12 -8 21 17 6 9 36 -10 36 -8 0 -16 4
-19 8 -2 4 7 8 22 7 27 0 71 30 59 41 -9 9 -39 -4 -33 -14 3 -5 -11 -8 -31 -7
-33 1 -38 5 -53 40 l-17 40 61 39 c34 22 106 85 161 140 l100 101 33 -70 c19
-38 38 -75 43 -81z m-959 58 c59 -45 69 -64 70 -140 1 -64 -40 -127 -76 -116
-42 13 -56 35 -57 88 0 28 -6 92 -12 142 -11 83 -11 91 3 80 9 -6 41 -30 72
-54z m79 -450 l32 -29 -43 -174 c-23 -96 -46 -178 -50 -182 -11 -12 -70 51
-64 68 10 24 -37 37 -56 17 -17 -19 -70 -45 -77 -38 -5 5 74 196 85 208 4 4
32 -2 62 -12 89 -31 94 -29 113 40 10 33 17 64 17 70 0 16 -50 44 -94 51 l-41
6 42 2 c34 1 49 -5 74 -27z m369 -145 c17 -28 18 -34 5 -52 -75 -109 -220
-348 -236 -389 -15 -42 -17 -62 -10 -100 5 -26 11 -49 14 -52 3 -4 28 1 56 11
28 9 56 13 62 10 15 -10 79 -111 79 -126 0 -6 -16 -30 -36 -53 -20 -23 -67
-95 -106 -161 -156 -265 -214 -335 -310 -375 -47 -19 -58 -29 -64 -52 -3 -16
-12 -32 -20 -35 -12 -4 -12 -8 -2 -21 11 -13 10 -14 -2 -10 -8 2 -16 17 -17
33 -3 39 -11 57 -22 51 -5 -4 -18 6 -29 21 -16 22 -23 25 -33 16 -9 -9 -18 -9
-31 -2 -12 7 -24 7 -31 1 -7 -5 -23 -12 -37 -14 -14 -3 -33 -9 -43 -13 -15 -6
-17 -4 -12 17 5 21 -17 57 -134 217 -160 217 -171 236 -171 286 0 35 1 36 28
31 17 -4 35 -1 47 8 19 14 17 15 -25 16 l-45 0 0 145 0 145 40 12 c46 15 47
20 10 113 -14 32 -23 61 -20 63 12 13 63 -29 85 -70 l25 -47 -18 -105 c-15
-90 -16 -117 -6 -193 6 -48 13 -90 15 -92 3 -3 4 51 4 120 0 96 6 157 28 269
l27 145 90 5 c100 6 85 20 -21 20 l-62 0 39 97 c21 53 40 98 42 100 2 2 34 -4
71 -12 37 -9 71 -13 76 -10 5 3 11 19 15 36 4 17 9 29 11 26 2 -2 -9 -60 -26
-130 -41 -171 -63 -330 -55 -386 l7 -46 25 67 25 68 32 -27 c17 -14 30 -32 28
-39 -3 -16 35 -37 54 -30 8 3 14 11 14 19 0 7 15 18 33 25 44 16 46 15 55 -8
6 -16 23 7 91 125 l83 144 27 -14 c15 -7 33 -21 41 -30 7 -9 27 -25 43 -37 28
-20 29 -20 19 -1 -11 21 -72 83 -81 83 -3 0 -12 4 -20 9 -12 8 -3 23 42 74
l57 65 37 -34 c56 -52 72 -53 110 -9 41 48 41 69 1 108 -24 22 -27 27 -10 18
13 -7 32 -26 42 -44z m-510 -182 c0 -14 8 -29 20 -35 23 -13 24 -19 6 -43 -14
-18 -16 -18 -41 -1 -20 13 -29 14 -38 5 -9 -9 -3 -20 31 -47 27 -23 42 -44 42
-58 0 -33 -37 -76 -65 -76 -15 0 -26 -7 -30 -20 -3 -11 -13 -20 -22 -20 -10 0
-14 6 -10 20 3 11 2 20 -1 20 -4 0 -20 11 -37 24 -29 24 -30 24 -11 45 19 20
19 20 44 1 55 -44 81 -11 27 35 -30 25 -38 39 -38 65 0 36 31 70 63 70 10 0
22 9 25 20 9 29 35 25 35 -5z m1007 -163 c8 -5 15 -47 19 -110 l7 -102 -51 0
c-69 0 -82 -7 -82 -42 0 -28 1 -29 35 -22 42 7 43 1 10 -49 -31 -44 -43 -46
-78 -9 -32 34 -34 52 -6 52 15 0 20 5 17 23 -2 16 -11 23 -32 25 -50 6 -96 -7
-96 -26 0 -21 49 -100 74 -121 22 -19 5 -31 -45 -31 l-36 0 -16 132 c-15 127
-14 134 4 168 l19 35 -3 -30 c-2 -25 2 -30 23 -33 21 -2 28 3 38 31 7 19 21
42 32 52 20 18 21 17 64 -28 30 -33 51 -47 70 -47 15 0 26 6 26 13 0 19 -57
96 -75 104 -8 3 -12 9 -9 14 6 11 74 12 91 1z m-367 -6 c0 -3 -9 -21 -21 -40
l-21 -35 36 -32 c39 -34 42 -45 24 -84 l-12 -26 -40 38 c-40 38 -40 38 4 -34
11 -18 12 -24 1 -37 -19 -23 -27 -20 -42 16 -7 17 -28 46 -46 64 l-33 33 27
33 c49 61 97 108 110 108 7 0 13 -2 13 -4z"/>
<path d="M3180 2961 c-163 -108 -311 -233 -414 -350 -29 -34 -35 -46 -25 -52
22 -12 290 -49 355 -49 72 0 100 16 186 103 57 57 177 209 221 279 l17 27 -89
50 c-130 75 -127 75 -251 -8z m210 5 c0 -11 -72 -45 -84 -40 -8 3 -17 -2 -20
-13 -7 -22 -72 -59 -97 -55 -10 2 -20 -5 -24 -17 -7 -22 -67 -61 -95 -61 -10
0 -20 -7 -23 -15 -9 -21 -87 -67 -104 -61 -9 4 -17 -1 -20 -12 -6 -24 -103
-79 -103 -58 0 22 132 128 144 116 18 -18 38 -12 31 10 -5 15 3 25 34 45 44
27 61 31 61 13 0 -6 3 -9 6 -6 3 4 1 16 -6 27 -6 12 -7 21 -2 21 5 0 14 -10
21 -22 9 -19 10 -20 6 -3 -4 16 6 27 42 48 33 21 48 25 53 16 10 -15 31 -2 28
17 -4 20 73 65 89 52 14 -12 36 -1 27 14 -4 6 2 6 15 -1 11 -7 21 -13 21 -15z"/>
<path d="M5287 6753 c3 -8 0 -19 -8 -24 -12 -8 -12 -10 0 -18 8 -5 10 -14 5
-22 -6 -11 -5 -12 7 -3 8 6 23 14 33 18 16 5 17 4 6 -9 -17 -21 -5 -31 17 -14
16 13 17 12 4 -3 -12 -16 -9 -22 12 -19 18 3 4 -15 -20 -27 -18 -8 -30 -9 -37
-2 -6 6 -15 5 -24 -3 -13 -10 -14 -8 -8 13 4 14 4 20 -1 14 -4 -6 -16 -10 -26
-8 -10 1 -21 -4 -24 -12 -5 -13 -8 -12 -24 2 -17 15 -19 16 -19 1 0 -9 6 -22
13 -29 28 -25 2 -55 -44 -50 -3 1 -6 -5 -6 -13 0 -8 4 -12 8 -9 4 2 12 -4 18
-13 5 -10 13 -14 18 -9 4 5 2 11 -5 13 -14 5 -6 23 10 23 6 0 8 -13 6 -30 -3
-20 -1 -29 6 -27 6 2 22 -6 35 -18 l23 -23 -28 6 c-16 2 -26 2 -22 -2 3 -4 12
-8 20 -10 7 -1 19 -5 26 -10 8 -5 12 -3 10 6 -2 8 6 12 22 10 19 -1 16 2 -12
14 -21 9 -35 20 -32 26 3 5 -3 12 -15 15 -12 3 -21 9 -21 13 0 9 22 28 33 29
4 0 18 8 31 19 18 13 22 22 15 34 -6 11 -5 19 1 23 6 3 13 0 16 -8 3 -8 11
-14 17 -12 38 9 57 18 57 26 0 20 18 7 24 -16 4 -15 11 -23 17 -19 8 4 7 10 0
17 -6 6 -11 15 -11 21 0 5 6 1 14 -9 8 -11 12 -23 10 -27 -10 -16 24 -7 39 10
21 23 22 33 2 26 -8 -4 -12 -10 -9 -16 3 -5 -3 -4 -15 3 -15 10 -17 16 -8 22
8 6 7 7 -5 4 -9 -3 -24 0 -33 7 -16 11 -15 14 11 31 27 17 27 19 9 27 -15 6
-14 7 8 3 16 -3 27 -1 27 6 0 6 7 18 16 27 12 12 13 17 4 20 -17 6 -63 -20
-50 -28 6 -4 -3 -7 -19 -8 -17 0 -31 3 -31 8 0 5 6 7 13 4 8 -3 19 1 26 9 9
12 0 14 -63 15 -63 1 -74 -2 -69 -15z"/>
<path d="M5351 6600 c-8 -4 -23 -6 -34 -4 -19 3 -18 2 3 -21 13 -14 19 -25 13
-25 -6 0 -14 -11 -17 -25 -4 -14 -11 -25 -16 -25 -6 0 -10 -8 -10 -17 0 -14 2
-15 9 -5 7 11 9 11 14 -2 4 -9 14 -16 24 -15 16 0 16 1 -1 8 -16 6 -10 10 27
21 26 7 47 17 47 21 0 5 5 9 11 9 6 0 9 -7 5 -15 -3 -10 1 -15 11 -15 14 0 14
-3 5 -12 -10 -10 -15 -10 -20 -1 -5 8 -18 9 -42 3 -42 -10 -39 -12 23 -15 26
-1 48 1 48 6 1 5 2 14 3 19 0 6 8 15 16 20 8 5 11 12 7 16 -4 4 1 13 11 21 13
10 14 13 2 11 -8 -2 -18 -7 -22 -13 -5 -6 -8 -5 -8 3 0 6 -7 12 -16 12 -8 0
-13 4 -10 8 2 4 -5 9 -17 9 -17 2 -19 0 -7 -7 9 -6 10 -10 3 -10 -6 0 -15 5
-18 10 -4 7 -12 7 -25 0 -14 -7 -19 -6 -24 6 -5 12 -2 15 13 11 22 -6 49 9 37
20 -5 4 -11 2 -14 -6 -3 -8 -7 -10 -11 -3 -4 7 -12 7 -20 2z"/>
<path d="M5474 6175 c-19 -29 -31 -31 -55 -9 -10 9 -25 14 -34 11 -28 -12 -13
-87 18 -87 5 0 1 7 -8 16 -21 22 -5 34 48 34 65 0 57 -43 -18 -94 -18 -13 -17
-13 10 -10 21 2 35 -3 46 -18 12 -16 18 -18 24 -8 5 9 4 11 -3 6 -22 -13 -12
13 10 28 25 18 44 11 27 -10 -10 -12 -10 -15 2 -12 8 2 13 -3 11 -10 -1 -8 2
-11 8 -7 14 9 13 -8 -2 -24 -11 -10 -10 -11 5 -6 21 9 22 28 2 45 -8 7 -12 17
-9 22 3 5 14 2 25 -8 10 -9 20 -14 20 -11 1 4 2 12 3 17 0 6 4 10 9 10 30 0
31 -1 17 -10 -8 -5 -11 -12 -7 -16 11 -12 38 17 28 30 -6 7 -6 17 -1 26 13 20
12 30 -1 30 -5 0 -7 -4 -4 -10 10 -16 -21 -11 -36 6 -10 13 -10 17 0 24 11 6
11 9 0 16 -7 4 -14 3 -17 -4 -2 -7 -10 -12 -17 -12 -7 0 -15 -7 -19 -15 -3 -9
-12 -12 -22 -8 -15 6 -15 7 2 20 20 15 7 18 -16 3 -18 -11 -40 5 -40 31 0 29
19 32 30 5 6 -17 14 -24 25 -20 13 5 13 9 -5 24 -11 9 -17 20 -13 24 3 3 -1 6
-10 6 -9 0 -24 -11 -33 -25z"/>
<path d="M5446 5925 c-3 -9 2 -12 17 -9 19 3 36 -10 37 -27 0 -10 -39 -18 -42
-10 -2 5 -21 0 -43 -10 -42 -19 -35 -26 10 -9 17 7 24 7 20 0 -3 -5 -24 -13
-47 -16 -22 -4 -48 -15 -58 -26 -17 -18 -17 -18 -15 19 4 54 4 55 18 47 6 -4
3 2 -7 14 -21 25 -36 31 -16 7 11 -14 7 -19 -13 -16 -4 1 -10 -6 -13 -14 -3
-8 -10 -13 -14 -10 -4 3 -13 -2 -20 -10 -17 -20 -33 -19 -60 5 -13 11 -28 20
-33 20 -6 0 -2 -6 9 -14 18 -14 18 -15 2 -21 -10 -4 -18 -14 -18 -21 0 -12 4
-12 24 1 16 11 26 13 31 6 6 -10 -1 -15 -18 -12 -4 1 -10 -6 -14 -14 -5 -14
-8 -14 -24 1 -23 20 -38 11 -19 -11 7 -9 15 -13 18 -10 3 3 16 -2 28 -10 20
-13 25 -13 38 1 9 8 16 11 16 5 0 -17 37 -13 44 5 8 22 8 23 -11 19 -10 -2
-18 -4 -18 -5 0 -1 -8 -3 -17 -5 -11 -2 -18 3 -18 11 0 9 5 12 12 8 7 -4 8 -3
4 4 -4 7 -1 12 8 12 8 0 18 -5 21 -10 4 -7 12 -7 25 0 21 11 27 5 25 -27 -2
-19 3 -21 42 -20 24 0 46 4 49 8 2 5 11 6 20 2 11 -4 12 -9 3 -19 -6 -8 -15
-11 -20 -8 -5 3 -9 0 -9 -5 0 -6 5 -11 11 -11 5 0 7 -4 4 -10 -3 -5 -1 -10 5
-10 7 0 10 6 7 14 -3 8 0 20 8 26 8 6 11 18 9 25 -3 8 6 20 20 29 14 9 38 24
54 33 15 10 30 16 35 15 4 -1 7 2 7 7 0 5 3 18 6 28 5 15 4 15 -5 3 -8 -12
-11 -12 -11 -1 0 11 -3 11 -15 1 -12 -10 -15 -10 -15 4 0 9 -6 15 -12 14 -7
-2 -12 2 -11 7 2 15 -45 15 -51 0z"/>
<path d="M875 2457 c4 -8 -7 -12 -37 -11 -28 0 -49 -6 -62 -18 -20 -18 -19
-18 7 -18 17 0 25 4 22 13 -4 8 5 12 25 11 17 0 30 -4 30 -7 0 -4 -3 -7 -7 -8
-5 0 -16 -8 -25 -16 -10 -9 -18 -12 -18 -7 0 5 -4 5 -8 -1 -4 -5 -16 -17 -26
-25 -18 -14 -19 -13 -14 8 4 15 2 22 -9 22 -17 0 -45 -25 -36 -34 3 -3 -4 -15
-17 -26 -13 -11 -20 -23 -17 -27 4 -3 15 2 26 11 12 11 21 14 26 7 3 -6 1 -11
-4 -11 -20 0 -11 -16 9 -17 11 -1 18 2 15 7 -3 4 1 11 7 13 10 4 10 6 1 6 -7
1 -13 5 -13 11 0 5 7 7 15 4 9 -4 15 0 16 7 0 8 4 5 8 -6 9 -23 -25 -53 -99
-86 -35 -16 -41 -22 -30 -29 20 -13 33 -13 25 0 -8 13 40 31 62 24 15 -5 15
-4 3 5 -29 20 -2 22 34 1 31 -17 37 -18 42 -5 4 8 10 13 14 10 5 -3 11 -1 15
5 3 5 11 10 16 10 6 0 3 -7 -6 -16 -11 -11 -13 -20 -5 -28 5 -7 6 -17 2 -21
-4 -5 1 -6 10 -2 9 3 19 0 22 -9 3 -8 16 -14 28 -14 20 1 21 2 6 11 -10 5 -18
17 -18 26 0 10 -6 13 -16 9 -23 -9 -38 4 -21 17 8 7 18 22 21 34 6 20 5 21
-18 10 -14 -7 -26 -16 -26 -20 0 -5 -4 -6 -9 -2 -5 3 -12 1 -16 -5 -7 -12 -25
-13 -25 -2 0 5 18 17 39 28 25 12 35 22 28 26 -18 11 -27 10 -24 -4 1 -7 -2
-12 -8 -13 -5 0 -20 -6 -32 -13 -19 -11 -23 -10 -23 2 0 13 27 31 42 28 4 -1
5 4 3 11 -4 8 7 12 32 12 37 1 69 -16 56 -29 -4 -3 -1 -6 5 -6 6 0 17 9 25 20
12 17 16 18 26 6 9 -11 8 -15 -5 -20 -9 -4 -15 -9 -12 -11 12 -13 38 8 33 26
-4 11 -2 19 4 19 6 0 11 -4 11 -10 0 -21 16 -9 27 21 12 30 12 31 -7 14 -10
-9 -29 -15 -42 -13 -23 4 -23 4 4 16 14 6 29 17 33 24 6 10 5 11 -6 1 -7 -7
-23 -13 -36 -13 -17 0 -21 4 -16 18 6 15 5 16 -11 2 -11 -8 -14 -16 -7 -18 6
-2 11 -13 11 -25 0 -20 0 -20 -15 -1 -8 10 -15 14 -15 9 0 -6 5 -16 12 -23 6
-6 9 -15 5 -18 -3 -4 -13 1 -22 10 -12 12 -13 20 -5 35 12 23 13 31 2 31 -4 0
-13 -13 -19 -29 -10 -28 -14 -29 -52 -22 -2 1 2 8 9 16 6 8 17 13 22 12 6 -1
13 4 15 11 3 8 -2 10 -14 6 -12 -4 -9 2 9 18 27 23 27 24 8 36 -15 9 -18 9
-15 -1z"/>
<path d="M6445 1020 c4 -7 -181 -10 -549 -10 l-555 0 -3 -114 c-2 -63 1 -112
5 -109 5 3 288 5 630 4 l622 0 -3 102 c-2 56 -7 105 -11 110 -4 4 -33 8 -64 8
-31 1 -57 6 -57 10 0 5 -5 9 -11 9 -5 0 -7 -4 -4 -10z"/>
<path d="M5415 758 c-2 -7 -9 -60 -15 -118 -6 -58 -13 -113 -16 -122 -4 -13 0
-18 15 -18 17 0 21 6 21 30 0 17 5 30 10 30 6 0 10 -13 10 -30 0 -23 4 -30 20
-30 11 0 20 3 20 8 0 4 -7 61 -15 127 -8 65 -15 123 -15 127 0 13 -30 9 -35
-4z"/>
<path d="M5540 635 l0 -135 38 0 c21 0 43 5 50 12 8 8 12 49 12 119 0 100 -2
109 -22 123 -12 9 -35 16 -50 16 l-28 0 0 -135z"/>
<path d="M5714 688 c14 -171 17 -188 37 -188 21 0 23 8 38 136 14 118 14 134
-3 134 -11 0 -17 -19 -22 -71 -8 -83 -24 -74 -24 14 0 46 -3 57 -16 57 -15 0
-16 -10 -10 -82z"/>
<path d="M5986 755 c-30 -30 -29 -55 3 -118 30 -58 42 -115 21 -102 -5 3 -10
15 -10 26 0 11 -7 19 -16 19 -12 0 -14 -9 -12 -37 3 -33 7 -38 31 -41 63 -7
75 52 27 133 -30 50 -39 95 -20 95 6 0 10 -9 10 -20 0 -13 7 -20 20 -20 13 0
20 7 20 20 0 20 -33 60 -49 60 -5 0 -16 -7 -25 -15z"/>
<path d="M6139 753 c-18 -20 -25 -187 -10 -225 8 -22 17 -28 40 -28 43 0 51
23 51 138 0 83 -3 102 -18 115 -24 21 -46 22 -63 0z"/>
<path d="M6290 635 c0 -130 1 -135 21 -135 18 0 20 6 19 53 -2 69 -1 75 10 57
5 -8 10 -36 10 -62 0 -36 4 -48 15 -48 12 0 14 21 14 120 -1 133 -7 150 -60
150 l-29 0 0 -135z"/>
<path d="M6590 615 l0 -155 -625 0 -625 0 0 -125 0 -125 618 0 c339 0 612 -4
605 -8 -6 -4 -28 -7 -47 -6 -20 1 -36 -2 -36 -7 0 -5 -5 -9 -11 -9 -5 0 -7 5
-4 10 8 13 -8 13 -40 -2 -46 -21 -25 -33 50 -29 l20 1 -20 -9 c-12 -6 -14 -10
-6 -10 8 -1 11 -4 8 -7 -4 -4 -12 -3 -19 3 -12 8 -19 9 -45 4 -5 -1 -2 -5 6
-10 18 -11 5 -31 -20 -31 -11 0 -18 -4 -14 -10 3 -5 12 -7 20 -3 27 10 15 -5
-21 -28 -29 -18 -40 -20 -54 -11 -14 9 -19 8 -24 -4 -3 -8 -10 -12 -16 -9 -5
3 -10 1 -10 -6 0 -7 10 -9 27 -6 26 5 26 4 8 -9 -16 -12 -16 -14 -3 -14 9 0
20 5 23 10 4 7 11 8 18 2 7 -6 25 -10 41 -10 24 0 26 2 12 10 -10 5 -24 7 -32
4 -21 -8 -7 12 18 25 15 8 19 8 13 -1 -4 -6 1 -17 11 -25 24 -17 247 -18 237
-1 -3 6 0 5 8 -1 7 -7 24 -13 39 -13 23 1 22 3 -14 21 -32 17 -40 18 -48 7 -8
-10 -8 -9 -4 5 3 9 0 17 -6 17 -7 0 -6 5 2 16 11 12 10 18 -4 32 -10 9 -16 13
-15 7 6 -33 -21 -50 -37 -23 -5 7 -2 9 8 5 22 -8 30 3 16 22 -7 9 -8 13 -4 9
5 -4 15 0 22 10 9 11 13 13 14 4 0 -7 5 -10 10 -7 6 4 8 10 5 15 -3 5 -1 12 5
15 7 4 9 -6 7 -29 -3 -21 1 -39 7 -43 6 -3 8 -3 4 2 -4 4 4 14 18 22 34 17 34
17 34 -8 0 -11 4 -17 10 -14 5 3 7 0 5 -7 -4 -9 2 -14 14 -14 20 0 20 1 -1 23
-21 22 -21 23 -3 43 10 11 25 18 32 15 8 -2 11 0 8 5 -9 15 -23 12 -45 -10
-11 -11 -20 -15 -20 -9 0 8 -4 8 -15 -1 -8 -6 -22 -10 -32 -7 -16 4 -15 6 5
12 22 7 31 25 12 25 -5 0 -10 7 -10 15 0 8 8 15 17 15 13 0 14 3 5 12 -9 9
-16 8 -30 -5 -27 -25 -46 -21 -23 5 11 11 18 25 15 30 -3 4 2 8 10 8 8 0 18 5
21 11 12 19 -3 21 -28 4 -15 -9 -28 -12 -31 -7 -3 6 5 13 19 16 44 11 20 35
-27 27 -22 -3 -3 21 32 40 21 12 37 26 34 31 -3 5 -19 -3 -36 -17 -21 -18 -34
-23 -41 -16 -7 7 -6 15 2 24 9 12 8 16 -3 20 -9 4 -17 -1 -19 -11 -3 -9 -5 5
-6 32 -1 39 2 47 14 42 12 -4 13 -2 2 16 -9 16 -9 22 1 25 6 3 12 9 12 14 0 6
-5 7 -11 4 -6 -4 -5 2 3 14 11 17 11 25 -1 42 -11 19 -11 21 3 16 8 -3 30 0
48 8 18 8 27 14 20 15 -7 0 -22 -5 -33 -10 -22 -12 -27 8 -7 28 9 9 8 12 -5
12 -10 0 -17 -8 -17 -21 0 -11 -4 -17 -11 -14 -11 7 -7 134 5 154 4 6 2 11 -4
11 -6 0 -8 5 -5 10 3 6 1 10 -4 10 -7 0 -11 -53 -11 -155z"/>
<path d="M813 561 c-6 -10 -26 -21 -43 -24 l-31 -7 20 -21 c11 -12 18 -26 14
-32 -3 -5 -9 -4 -13 3 -5 7 -13 9 -21 5 -8 -6 -11 -4 -7 6 4 11 -2 16 -24 17
-17 1 -27 -2 -23 -7 3 -6 12 -8 20 -4 18 6 19 -8 3 -27 -11 -12 -10 -12 5 -1
10 8 17 9 17 3 0 -6 -5 -14 -10 -17 -6 -4 -8 -11 -5 -16 4 -5 -4 -10 -17 -10
-16 -1 -18 -3 -6 -6 25 -6 61 16 54 34 -4 11 -2 13 9 9 20 -7 65 10 65 25 0 9
-3 9 -14 0 -11 -9 -17 -6 -30 14 -9 14 -12 25 -6 25 6 0 13 -7 16 -15 4 -8 11
-15 16 -15 6 0 8 7 4 15 -4 12 -2 13 13 3 11 -6 17 -19 14 -27 -3 -9 5 -5 18
9 17 20 21 21 15 6 -4 -12 -2 -23 6 -27 7 -4 9 -11 5 -16 -5 -4 -12 -1 -17 7
-7 11 -12 11 -23 2 -7 -7 -18 -8 -22 -4 -5 4 -5 1 -1 -6 4 -7 11 -10 16 -7 4
3 13 -2 19 -9 8 -9 8 -16 2 -20 -5 -4 -12 -2 -16 4 -4 6 -11 8 -16 5 -5 -4 -9
1 -9 9 0 19 -12 20 -28 4 -7 -7 -16 -13 -20 -13 -4 0 -20 -10 -36 -22 -16 -13
-24 -23 -17 -23 6 0 11 -5 11 -11 0 -7 -10 -9 -27 -5 -24 5 -25 5 -9 -5 14 -9
15 -13 5 -19 -10 -7 -10 -11 0 -24 11 -13 10 -19 -10 -35 -13 -11 -20 -23 -16
-27 4 -5 11 -4 15 2 4 6 21 19 39 29 26 15 37 17 57 7 20 -9 27 -8 41 8 10 11
21 17 25 15 4 -2 16 5 26 18 12 13 13 17 3 9 -19 -14 -33 -4 -18 14 10 12 7
12 -30 5 -2 -1 3 -9 10 -18 12 -14 12 -16 0 -8 -9 5 -12 4 -7 -3 3 -6 2 -13
-3 -17 -6 -3 -8 4 -6 15 2 11 0 18 -6 15 -5 -4 -9 -15 -9 -26 0 -10 -7 -19
-15 -19 -8 0 -15 5 -15 10 0 6 -12 8 -27 4 l-28 -6 25 21 c14 11 29 21 34 21
5 0 7 3 4 6 -3 3 -15 0 -27 -7 -30 -19 -38 -3 -10 21 13 11 19 19 13 18 -7 -2
-12 0 -13 5 -1 4 2 7 7 7 4 1 17 7 28 15 27 17 39 7 19 -15 -13 -15 -13 -19
-2 -29 11 -8 21 -8 42 3 l28 15 -26 6 c-15 4 -24 11 -21 17 3 5 11 5 17 0 26
-19 43 -20 44 -1 1 10 -4 19 -10 19 -17 1 25 24 43 25 9 0 28 10 43 22 24 18
25 22 10 25 -10 2 -25 -5 -34 -15 -14 -19 -16 -19 -33 -2 -9 10 -15 24 -12 31
7 19 -8 18 -24 -1 -13 -16 -35 -10 -24 6 3 5 2 8 -3 7 -4 -2 -9 2 -9 7 -1 6 2
9 7 8 5 -2 9 4 9 12 0 21 -13 19 -27 -4z"/>
</g>
</svg>
